<?xml version="1.0" encoding="UTF-8" standalone="no"?>
<!-- Generator: Adobe Illustrator 21.1.0, SVG Export Plug-In . SVG Version: 6.00 Build 0)  -->

<svg
   xmlns:dc="http://purl.org/dc/elements/1.1/"
   xmlns:cc="http://creativecommons.org/ns#"
   xmlns:rdf="http://www.w3.org/1999/02/22-rdf-syntax-ns#"
   xmlns:svg="http://www.w3.org/2000/svg"
   xmlns="http://www.w3.org/2000/svg"
   xmlns:sodipodi="http://sodipodi.sourceforge.net/DTD/sodipodi-0.dtd"
   xmlns:inkscape="http://www.inkscape.org/namespaces/inkscape"
   version="1.1"
   id="svg1"
   x="0px"
   y="0px"
   viewBox="0 0 1728 1296"
   style="enable-background:new 0 0 1728 1296;"
   xml:space="preserve"
   sodipodi:docname="3d_modeling_svg.svg"
   inkscape:version="0.92.3 (2405546, 2018-03-11)"><metadata
   id="metadata673"><rdf:RDF><cc:Work
       rdf:about=""><dc:format>image/svg+xml</dc:format><dc:type
         rdf:resource="http://purl.org/dc/dcmitype/StillImage" /><dc:title></dc:title></cc:Work></rdf:RDF></metadata><defs
   id="defs671" /><sodipodi:namedview
   pagecolor="#ffffff"
   bordercolor="#666666"
   borderopacity="1"
   objecttolerance="10"
   gridtolerance="10"
   guidetolerance="10"
   inkscape:pageopacity="0"
   inkscape:pageshadow="2"
   inkscape:window-width="1920"
   inkscape:window-height="1001"
   id="namedview669"
   showgrid="false"
   inkscape:zoom="0.18209877"
   inkscape:cx="864"
   inkscape:cy="2259.2476"
   inkscape:window-x="-9"
   inkscape:window-y="-9"
   inkscape:window-maximized="1"
   inkscape:current-layer="Lines" />
<style
   type="text/css"
   id="style2">
	.st0{fill:none;stroke:#FF0000;stroke-width:1.000000e-03;stroke-miterlimit:10;}
	.st1{fill:none;stroke:#FF0000;stroke-width:1.000000e-03;}
	.st2{fill:none;stroke:#000000;stroke-width:1.000000e-03;stroke-dasharray:1,1;}
	.st3{fill:none;stroke:#000000;stroke-width:1.000000e-03;stroke-dasharray:2,1,0.5,1;}
	.st4{fill:none;stroke:#000000;stroke-width:1.000000e-03;}
</style>
<g
   id="Lines"
   inkscape:groupmode="layer"
   inkscape:label="Lines">
	<path
   id="path1"
   class="st0"
   d="M2097.4-1363.9l113.6-59.6" />
	<path
   id="path2"
   class="st0"
   d="M2211-1423.5l-189.1-99.3" />
	<path
   id="path3"
   class="st0"
   d="M1992.9-1377.2l104.6,13.3" />
	<path
   id="path4"
   class="st0"
   d="M2097.4-1363.9l112.8,1.5" />
	<path
   id="path5"
   class="st0"
   d="M2210.2-1362.4l0.8-61.1" />
	<path
   id="path6"
   class="st0"
   d="M1992.9-1377.2v241.3" />
	<path
   id="path7"
   class="st0"
   d="M1992.9-1377.2l-123.2,82.8" />
	<path
   id="path8"
   class="st0"
   d="M2196.6-1203v-107.2" />
	<path
   id="path9"
   class="st0"
   d="M1869.7-1294.5v75.7" />
	<path
   id="path10"
   class="st0"
   d="M1869.7-1218.7l123.2,82.8" />
	<path
   id="path11"
   class="st0"
   d="M1992.9-1136l104.6-13.3" />
	<path
   id="path12"
   class="st0"
   d="M2021.9-990.4l189.1-99.3" />
	<path
   id="path13"
   class="st0"
   d="M2211-1089.7l-113.6-59.6" />
	<path
   id="path14"
   class="st0"
   d="M2211-1089.7l-0.9-61.1" />
	<path
   id="path15"
   class="st0"
   d="M2210.2-1150.8l-112.8,1.5" />
	<path
   id="path16"
   class="st0"
   d="M2253.8-991.3l-42.7-98.4" />
	<path
   id="path17"
   class="st0"
   d="M1708.8-948.5l-63.5,62.2" />
	<path
   id="path18"
   class="st0"
   d="M1596.5-951.4l48.9,65.1" />
	<path
   id="path19"
   class="st0"
   d="M1708.8-948.5l-61.9-52.3" />
	<path
   id="path20"
   class="st0"
   d="M1646.9-1000.8l-50.4,49.4" />
	<path
   id="path21"
   class="st0"
   d="M1567.2-841.9l78.2-44.4" />
	<path
   id="path22"
   class="st0"
   d="M1680.9-1049.8l-34,49" />
	<path
   id="path23"
   class="st0"
   d="M1596.5-951.4l-62.1,35.2" />
	<path
   id="path24"
   class="st0"
   d="M1534.4-916.1l32.8,74.2" />
	<path
   id="path25"
   class="st0"
   d="M1708.8-948.5l42.8-61.7" />
	<path
   id="path26"
   class="st0"
   d="M1751.6-1010.1l-70.7-39.7" />
	<path
   id="path27"
   class="st0"
   d="M1534.4-916.1l-67.9,22.2" />
	<path
   id="path28"
   class="st0"
   d="M1709.5-1114.3l-28.6,64.5" />
	<path
   id="path29"
   class="st0"
   d="M1466.5-894l15.2,80" />
	<path
   id="path30"
   class="st0"
   d="M1481.7-814l85.5-27.9" />
	<path
   id="path31"
   class="st0"
   d="M1751.6-1010.1l36-81.2" />
	<path
   id="path32"
   class="st1"
   d="M2370.5-603.7h-118" />
	<path
   id="path33"
   class="st1"
   d="M2252.6-603.7v166.2" />
	<path
   id="path34"
   class="st1"
   d="M2252.6-437.5h118" />
	<path
   id="path35"
   class="st1"
   d="M2252.6-603.7h-96.5" />
	<path
   id="path36"
   class="st1"
   d="M2488.5-603.7h-118" />
	<path
   id="path37"
   class="st1"
   d="M2370.5-700.2h-118" />
	<path
   id="path38"
   class="st1"
   d="M2488.5-700.2h-118" />
	<path
   id="path39"
   class="st1"
   d="M2156.1-603.7v166.2" />
	<path
   id="path40"
   class="st1"
   d="M2156.1-437.5h96.5" />
	<path
   id="path41"
   class="st1"
   d="M2252.6-340.9h118" />
	<path
   id="path42"
   class="st1"
   d="M2370.5-437.5h118" />
	<path
   id="path43"
   class="st1"
   d="M2488.5-437.5v-166.2" />
	<path
   id="path44"
   class="st1"
   d="M2585-603.7h-96.5" />
	<path
   id="path45"
   class="st1"
   d="M2370.5-340.9h118" />
	<path
   id="path46"
   class="st1"
   d="M2488.5-437.5h96.5" />
	<path
   id="path47"
   class="st1"
   d="M2585-437.5v-166.2" />
	<path
   id="path48"
   class="st0"
   d="M1521.5-628.3l-15.9,67" />
	<path
   id="path49"
   class="st0"
   d="M1505.6-561.3h85.5" />
	<path
   id="path50"
   class="st0"
   d="M1557.2-628.3h-35.7" />
	<path
   id="path51"
   class="st0"
   d="M1505.6-561.3l15.9,67" />
	<path
   id="path52"
   class="st0"
   d="M1591.1-561.3v-26.3" />
	<path
   id="path53"
   class="st0"
   d="M1591.1-587.6l-33.9-40.7" />
	<path
   id="path54"
   class="st0"
   d="M1557.2-628.3l-9.9-5.9" />
	<path
   id="path55"
   class="st0"
   d="M1521.5-494.3h35.7" />
	<path
   id="path56"
   class="st0"
   d="M1540.2-667.8l-18.7,39.4" />
	<path
   id="path57"
   class="st0"
   d="M1547.4-488.4l9.9-5.9" />
	<path
   id="path58"
   class="st0"
   d="M1557.2-494.3l33.9-40.7" />
	<path
   id="path59"
   class="st0"
   d="M1591.1-535v-26.3" />
	<path
   id="path60"
   class="st0"
   d="M1547.4-634.3v-61.1" />
	<path
   id="path61"
   class="st0"
   d="M1521.5-494.3l18.7,39.4" />
	<path
   id="path62"
   class="st0"
   d="M1547.4-695.4h-28.9" />
	<path
   id="path63"
   class="st0"
   d="M1518.4-695.4l21.8,27.6" />
	<path
   id="path64"
   class="st0"
   d="M1547.4-427.3v-61.1" />
	<path
   id="path65"
   class="st0"
   d="M1547.4-695.4v-67" />
	<path
   id="path66"
   class="st0"
   d="M1540.2-454.9l-21.8,27.6" />
	<path
   id="path67"
   class="st0"
   d="M1518.4-427.3h28.9" />
	<path
   id="path68"
   class="st0"
   d="M1547.4-762.4h-55.3" />
	<path
   id="path69"
   class="st0"
   d="M1492-762.4l26.4,67" />
	<path
   id="path70"
   class="st0"
   d="M1547.4-360.2v-67" />
	<path
   id="path71"
   class="st0"
   d="M1518.4-427.3l-26.4,67" />
	<path
   id="path72"
   class="st0"
   d="M1597.4-199.1h-45.6" />
	<path
   id="path73"
   class="st0"
   d="M1632.6-250.1h-116" />
	<path
   id="path74"
   class="st0"
   d="M1908.7-265.4h-116.1" />
	
	
	
	
	
	
	
	
	
	
	
	
	
	
	
	
	
	
	
	
	
	
	
	
	
	
	
	
	
	
	<path
   id="path105"
   class="st1"
   d="m 2397.2678,539.2661 h 58.1"
   inkscape:connector-curvature="0" />
	<path
   id="path106"
   class="st1"
   d="m 2455.5678,208.5661 h -57.9"
   inkscape:connector-curvature="0" />
	<path
   id="path107"
   class="st1"
   d="m 2397.6678,208.4661 -0.4,330.7"
   inkscape:connector-curvature="0" />
	<path
   id="path108"
   class="st1"
   d="m 2295.0678,539.1661 102.1,0.1"
   inkscape:connector-curvature="0" />
	<path
   id="path109"
   class="st1"
   d="m 2397.6678,208.4661 h -102.6"
   inkscape:connector-curvature="0" />
	<path
   id="path110"
   class="st1"
   d="m 2295.0678,208.4661 v 330.7"
   inkscape:connector-curvature="0" />
	<path
   id="path111"
   class="st1"
   d="m 2295.0678,208.4661 h -57.9"
   inkscape:connector-curvature="0" />
	<path
   id="path112"
   class="st1"
   d="m 2237.1678,208.4661 v 330.7"
   inkscape:connector-curvature="0" />
	<path
   id="path113"
   class="st1"
   d="m 2237.1678,539.1661 h 57.9"
   inkscape:connector-curvature="0" />
	<path
   id="path114"
   class="st1"
   d="m 2134.5678,539.1661 h 102.6"
   inkscape:connector-curvature="0" />
	<path
   id="path115"
   class="st1"
   d="m 2237.1678,208.4661 h -102.6"
   inkscape:connector-curvature="0" />
	<path
   id="path116"
   class="st1"
   d="m 2134.5678,208.5661 v 330.7"
   inkscape:connector-curvature="0" />
	<path
   id="path117"
   class="st1"
   d="m 2134.5678,208.5661 h -57.9"
   inkscape:connector-curvature="0" />
	<path
   id="path118"
   class="st1"
   d="m 2076.6678,208.5661 v 330.7"
   inkscape:connector-curvature="0" />
	<path
   id="path119"
   class="st1"
   d="m 2076.6678,539.1661 h 57.9"
   inkscape:connector-curvature="0" />
	<path
   id="path120"
   class="st1"
   d="m 1974.0678,539.1661 h 102.6"
   inkscape:connector-curvature="0" />
	<path
   id="path121"
   class="st1"
   d="m 2076.6678,208.5661 h -102.6"
   inkscape:connector-curvature="0" />
	<path
   id="path122"
   class="st1"
   d="m 1973.9678,208.5661 v 330.7"
   inkscape:connector-curvature="0" />
	
	
	
	
	
	
	
	
	
	
	
	
	
	
	
	
	
	
	
	
	
	
	
	
	
	
	
	
	
	
	
	
	
	
	
	
	
	
	
	
	
	
	
	
	
	
	
	
	
	
	
	
	
	
	
	
	
	
	
	
	
	
	
	
	
	
	
	
	
	
	
	
	
	
	
	
	
	
	
	
	
	
	
	
	
	
	
	
	
	
	
	
	
	
	
	
	
	
	
	
	
	
	
	
	
	
	
	
	
	
	
	
	
	
	
	
	
	
	
	
	
	
	
	
	
	
	
	
	
	
	
	
	
	
	
	
	
	
	
	
	
	
	
	
	
	
	
	
	<path
   id="path271"
   class="st3"
   d="m 1227.1542,746.34237 0.1,-0.1"
   inkscape:connector-curvature="0" />
	<path
   id="path272"
   class="st2"
   d="m 1227.2542,746.34237 -88.1,8.6"
   inkscape:connector-curvature="0" />
	<path
   id="path273"
   class="st3"
   d="m 1227.1542,746.34237 -75.2,35.7"
   inkscape:connector-curvature="0" />
	<path
   id="path274"
   class="st3"
   d="m 1151.8542,782.14237 75.3,-35.8"
   inkscape:connector-curvature="0" />
	<path
   id="path275"
   class="st2"
   d="m 1227.2542,746.34237 v -55.3"
   inkscape:connector-curvature="0" />
	<path
   id="path276"
   class="st2"
   d="m 1139.2542,682.44237 -0.1,72.4"
   inkscape:connector-curvature="0" />
	<path
   id="path277"
   class="st2"
   d="m 1227.2542,690.94237 -87.9,-8.6"
   inkscape:connector-curvature="0" />
	<path
   id="path278"
   class="st2"
   d="m 1227.2542,690.94237 -75.4,-35.3"
   inkscape:connector-curvature="0" />
	<path
   id="path279"
   class="st2"
   d="m 1151.7542,655.74237 -12.5,26.7"
   inkscape:connector-curvature="0" />
	<path
   id="path280"
   class="st2"
   d="m 1139.1542,754.94237 12.5,26.7"
   inkscape:connector-curvature="0" />
	<path
   id="path281"
   class="st2"
   d="m 1109.8542,682.44237 -0.1,72.4"
   inkscape:connector-curvature="0" />
	<path
   id="path282"
   class="st2"
   d="m 1015.7542,655.84237 -75.49996,35.2"
   inkscape:connector-curvature="0" />
	<path
   id="path283"
   class="st2"
   d="m 940.25424,690.94237 87.89996,-8.4"
   inkscape:connector-curvature="0" />
	<path
   id="path284"
   class="st2"
   d="m 1028.2542,682.44237 -12.5,-26.7"
   inkscape:connector-curvature="0" />
	<path
   id="path285"
   class="st2"
   d="m 940.35424,746.24237 75.39996,35.4"
   inkscape:connector-curvature="0" />
	<path
   id="path286"
   class="st2"
   d="m 1028.2542,754.94237 -87.89996,-8.7"
   inkscape:connector-curvature="0" />
	<path
   id="path287"
   class="st2"
   d="m 1028.2542,754.94237 v -72.4"
   inkscape:connector-curvature="0" />
	<path
   id="path288"
   class="st2"
   d="m 940.25424,690.94237 v 55.3"
   inkscape:connector-curvature="0" />
	<path
   id="path289"
   class="st2"
   d="m 1015.6542,781.64237 12.5,-26.7"
   inkscape:connector-curvature="0" />
	<path
   id="path290"
   class="st2"
   d="m 1057.7542,754.94237 v -72.4"
   inkscape:connector-curvature="0" />
	
	
	
	
	
	
	
	
	
	
	
	
	
	
	
	
	
	
	<path
   id="path309"
   class="st0"
   d="M1398.1-253.4l-15.9-67" />
	<path
   id="path310"
   class="st0"
   d="M1312.6-253.4h85.5" />
	<path
   id="path311"
   class="st0"
   d="M1382.2-320.4h-35.7" />
	<path
   id="path312"
   class="st0"
   d="M1382.2-186.4l15.9-67" />
	<path
   id="path313"
   class="st0"
   d="M1312.6-279.7v26.3" />
	<path
   id="path314"
   class="st0"
   d="M1346.5-320.4l-33.9,40.7" />
	<path
   id="path315"
   class="st0"
   d="M1356.4-326.4l-9.9,5.9" />
	<path
   id="path316"
   class="st0"
   d="M1346.5-186.4h35.7" />
	<path
   id="path317"
   class="st0"
   d="M1382.2-320.4l-18.7-39.4" />
	<path
   id="path318"
   class="st0"
   d="M1346.5-186.4l9.9,5.9" />
	<path
   id="path319"
   class="st0"
   d="M1312.6-227.1l33.9,40.7" />
	<path
   id="path320"
   class="st0"
   d="M1312.6-253.4v26.3" />
	<path
   id="path321"
   class="st0"
   d="M1356.4-387.4v61.1" />
	<path
   id="path322"
   class="st0"
   d="M1363.5-147l18.7-39.4" />
	<path
   id="path323"
   class="st0"
   d="M1385.3-387.4h-28.9" />
	<path
   id="path324"
   class="st0"
   d="M1363.5-359.8l21.8-27.6" />
	<path
   id="path325"
   class="st0"
   d="M1356.4-180.4v61.1" />
	<path
   id="path326"
   class="st0"
   d="M1356.4-454.5v67" />
	<path
   id="path327"
   class="st0"
   d="M1385.3-119.4l-21.8-27.6" />
	<path
   id="path328"
   class="st0"
   d="M1356.4-119.4h28.9" />
	<path
   id="path329"
   class="st0"
   d="M1385.3-387.4l26.4-67" />
	<path
   id="path330"
   class="st0"
   d="M1356.4-119.4v67" />
	<path
   id="path331"
   class="st0"
   d="M1411.7-52.3l-26.4-67" />
	<path
   id="path332"
   class="st0"
   d="M1356.4-52.3h55.3" />
	<path
   id="path333"
   class="st0"
   d="M1778.3-268.2h-116.1" />
	<path
   id="path334"
   class="st0"
   d="M1558.4-107.1h-116" />
	<path
   id="path335"
   class="st0"
   d="M1477.6-56.1h45.6" />
	
	
	
	
	
	
	
	
	
	
	
	
	
	
	
	
	
	
	
	
	
	
	
	
	
	
	
	
	
	
	<path
   id="path366"
   class="st2"
   d="m 1244.7542,316.74237 23.2,48.1"
   inkscape:connector-curvature="0" />
	<path
   id="path367"
   class="st2"
   d="m 1267.9542,364.94237 27.8,-12.8"
   inkscape:connector-curvature="0" />
	<path
   id="path368"
   class="st2"
   d="m 1295.8542,351.94237 -22.7,-48.6"
   inkscape:connector-curvature="0" />
	<path
   id="path369"
   class="st2"
   d="m 1278.1542,241.64237 -30.7,44"
   inkscape:connector-curvature="0" />
	<path
   id="path370"
   class="st2"
   d="m 1247.4542,285.64237 -53.4,-4.6"
   inkscape:connector-curvature="0" />
	<path
   id="path371"
   class="st2"
   d="m 1191.3542,312.24237 53.4,4.6"
   inkscape:connector-curvature="0" />
	<path
   id="path372"
   class="st2"
   d="m 1194.0542,280.94237 -2.7,31.2"
   inkscape:connector-curvature="0" />
	<path
   id="path373"
   class="st2"
   d="m 1303.7542,259.44237 -25.6,-17.9"
   inkscape:connector-curvature="0" />
	<path
   id="path374"
   class="st2"
   d="m 1273.0542,303.44237 30.7,-44"
   inkscape:connector-curvature="0" />
	<path
   id="path375"
   class="st2"
   d="m 1020.5542,310.84237 170.8,1.3"
   inkscape:connector-curvature="0" />
	<path
   id="path376"
   class="st2"
   d="m 1025.4542,253.14237 -5,57.7"
   inkscape:connector-curvature="0" />
	<path
   id="path377"
   class="st2"
   d="m 1194.0542,280.94237 -168.6,-27.9"
   inkscape:connector-curvature="0" />
	<path
   id="path378"
   class="st3"
   d="m 1020.5542,310.84237 120,55.8"
   inkscape:connector-curvature="0" />
	<path
   id="path379"
   class="st3"
   d="m 1153.3542,218.44237 -127.9,34.8"
   inkscape:connector-curvature="0" />
	<path
   id="path380"
   class="st2"
   d="m 1020.5542,310.84237 -4,102.1"
   inkscape:connector-curvature="0" />
	<path
   id="path381"
   class="st3"
   d="m 1140.5542,366.74237 54.6,-1"
   inkscape:connector-curvature="0" />
	<path
   id="path382"
   class="st3"
   d="m 1206.8542,228.94237 -53.5,-10.6"
   inkscape:connector-curvature="0" />
	<path
   id="path383"
   class="st2"
   d="m 1038.9542,151.44237 -13.4,101.7"
   inkscape:connector-curvature="0" />
	<path
   id="path384"
   class="st2"
   d="m 1023.3542,428.24237 170.5,-9.2"
   inkscape:connector-curvature="0" />
	<path
   id="path385"
   class="st3"
   d="m 1140.5542,366.74237 -117.2,61.5"
   inkscape:connector-curvature="0" />
	<path
   id="path386"
   class="st2"
   d="m 1214.9542,175.94237 -166.4,-38.8"
   inkscape:connector-curvature="0" />
	<path
   id="path387"
   class="st3"
   d="m 1048.5542,137.24237 104.8,81.2"
   inkscape:connector-curvature="0" />
	<path
   id="path388"
   class="st2"
   d="m 1023.3542,428.24237 7.8,57.6"
   inkscape:connector-curvature="0" />
	<path
   id="path389"
   class="st2"
   d="m 1066.0542,81.942373 -17.5,55.199997"
   inkscape:connector-curvature="0" />
	<path
   id="path390"
   class="st2"
   d="m 1031.1542,485.84237 166.9,-36.4"
   inkscape:connector-curvature="0" />
	<path
   id="path391"
   class="st3"
   d="m 1031.1542,485.84237 129.6,28.3"
   inkscape:connector-curvature="0" />
	<path
   id="path392"
   class="st2"
   d="m 1031.1542,485.84237 18.6,100.9"
   inkscape:connector-curvature="0" />
	<path
   id="path393"
   class="st3"
   d="m 1160.7542,514.14237 52.8,-13.3"
   inkscape:connector-curvature="0" />
	<path
   id="path394"
   class="st2"
   d="m 1060.2542,600.64237 164.1,-47.4"
   inkscape:connector-curvature="0" />
	<path
   id="path395"
   class="st3"
   d="m 1160.7542,514.14237 -100.5,86.5"
   inkscape:connector-curvature="0" />
	
	
	
	
	
	
	
	
	
	
	
	
	
	
	
	
	
	
	
	
	
	
	
	
	
	
	
	
	
	
	
	
	
	
	
	
	
	
	
	
	
	
	
	
	
	
	
	
	
	
	
	
	
	
	
	
	
	
	
	
	
	
	
	
	
	
	
	
	
	
	
	
	
	
	
	
	
	
	
	
	
	
	
	
	
	
	<path
   id="path482"
   class="st0"
   d="M1068.2-189h96" />
	<path
   id="path483"
   class="st0"
   d="M1164.2-189v-166.2" />
	<path
   id="path484"
   class="st0"
   d="M1164.2-355.2h-96" />
	<path
   id="path485"
   class="st0"
   d="M1068.2-355.2V-189" />
	<path
   id="path486"
   class="st0"
   d="M1180.3-127.9l-16.1-61" />
	<path
   id="path487"
   class="st0"
   d="M1164.2-355.2l16.4-61.2" />
	<path
   id="path488"
   class="st0"
   d="M1068.2-189l-35.9,72.3" />
	<path
   id="path489"
   class="st0"
   d="M1032.3-116.7l148-11.3" />
	<path
   id="path490"
   class="st0"
   d="M1227.3-189l0.3-166.2" />
	<path
   id="path491"
   class="st0"
   d="M1180.6-416.4l-148.3-11.1" />
	<path
   id="path492"
   class="st0"
   d="M1032.3-427.5l35.9,72.3" />
	<path
   id="path493"
   class="st0"
   d="M987.4-355.2V-189" />
	
	
	
	
	
	
	
	
	
	
	
	
	
	
	
	
	
	
	
	
	
	<path
   id="path514"
   class="st0"
   d="M1941.7-451.9v-166.2" />
	<path
   id="path515"
   class="st0"
   d="M1941.7-618.1h-96" />
	<path
   id="path516"
   class="st0"
   d="M1845.7-618.1v166.2" />
	<path
   id="path517"
   class="st0"
   d="M1845.7-451.9h96" />
	<path
   id="path518"
   class="st0"
   d="M1941.7-451.9h63.4" />
	<path
   id="path519"
   class="st0"
   d="M2005.1-451.9l-0.3-166.2" />
	<path
   id="path520"
   class="st0"
   d="M2004.8-618.1h-63.1" />
	<path
   id="path521"
   class="st0"
   d="M1957.8-679.2l-148-11.3" />
	<path
   id="path522"
   class="st0"
   d="M1809.8-690.4l35.9,72.3" />
	<path
   id="path523"
   class="st0"
   d="M1765-618.1v166.2" />
	<path
   id="path524"
   class="st0"
   d="M1845.7-451.9l-35.9,72.3" />
	<path
   id="path525"
   class="st0"
   d="M1809.8-379.6l148.3-11.1" />
	<path
   id="path526"
   class="st0"
   d="M1138.6-829.8v-241.3" />
	<path
   id="path527"
   class="st0"
   d="M1138.6-1071.1l-73.8,28.3" />
	<path
   id="path528"
   class="st0"
   d="M1064.9-1042.8V-858" />
	<path
   id="path529"
   class="st0"
   d="M1064.9-858l73.8,28.3" />
	<path
   id="path530"
   class="st0"
   d="M1064.9-1042.8l-100.2,59" />
	<path
   id="path531"
   class="st0"
   d="M964.7-983.8v66.7" />
	<path
   id="path532"
   class="st0"
   d="M964.7-917l100.2,59" />
	<path
   id="path533"
   class="st0"
   d="M1026.9-1112.1l-113.3,96.4" />
	<path
   id="path534"
   class="st0"
   d="M913.6-1015.7l51.1,31.9" />
	<path
   id="path535"
   class="st0"
   d="M904.6-987.9v75.1" />
	<path
   id="path536"
   class="st0"
   d="M964.7-917l-51.1,31.9" />
	<path
   id="path537"
   class="st0"
   d="M913.6-885.1l113.3,96.4" />
	<path
   id="path538"
   class="st0"
   d="M2459-1075h241.3" />
	<path
   id="path539"
   class="st0"
   d="M2700.3-1075l-83.1-123.3" />
	<path
   id="path540"
   class="st0"
   d="M2617.1-1198.3H2542" />
	<path
   id="path541"
   class="st0"
   d="M2542.1-1198.3L2459-1075" />
	<path
   id="path542"
   class="st0"
   d="M2617.1-1198.3l-12.2-170" />
	<path
   id="path543"
   class="st0"
   d="M2604.9-1368.3h-50.6" />
	<path
   id="path544"
   class="st0"
   d="M2554.3-1368.3l-12.2,170" />
	<path
   id="path545"
   class="st0"
   d="M2617.1-1198.3l24.7-164.4" />
	<path
   id="path546"
   class="st0"
   d="M2604.9-1368.3l12.6-35.2" />
	<path
   id="path547"
   class="st0"
   d="M2517.3-1362.7l24.7,164.4" />
	<path
   id="path548"
   class="st0"
   d="M2541.7-1403.5l12.6,35.2" />
	<path
   id="path549"
   class="st0"
   d="M2764.2-1176.4l24.5-164.4" />
	<path
   id="path550"
   class="st0"
   d="M2617.5-1403.5l82.8-123.2" />
	<path
   id="path551"
   class="st0"
   d="M2370.5-1340.8l24.5,164.4" />
	<path
   id="path552"
   class="st0"
   d="M2700.3-1526.7H2459" />
	<path
   id="path553"
   class="st0"
   d="M2459-1526.7l82.8,123.2" />
	<path
   id="path554"
   class="st0"
   d="M1021.3-601.3v-109.9" />
	<path
   id="path555"
   class="st0"
   d="M1021.3-711.2H830.9" />
	<path
   id="path556"
   class="st0"
   d="M830.2-711.2v220.1" />
	<path
   id="path557"
   class="st0"
   d="M830.9-711.2l-46.1-10.7" />
	<path
   id="path558"
   class="st0"
   d="M830.9-491.4h190.4" />
	<path
   id="path559"
   class="st0"
   d="M1021.3-491.4v-109.9" />
	<path
   id="path560"
   class="st0"
   d="M1076.3-601.3V-722" />
	<path
   id="path561"
   class="st0"
   d="M1076.3-722l-55,10.7" />
	<path
   id="path562"
   class="st0"
   d="M1076.3-480.7v-120.6" />
	<path
   id="path563"
   class="st0"
   d="M990.5-758.1H824.2" />
	<path
   id="path564"
   class="st0"
   d="M785.5-721.9v241.2" />
	<path
   id="path565"
   class="st0"
   d="M784.9-480.7l46.1-10.7" />
	<path
   id="path566"
   class="st0"
   d="M1021.3-491.4l55,10.7" />
	<path
   id="path567"
   class="st0"
   d="M824.2-444.6h166.2" />
	<path
   id="path568"
   class="st0"
   d="M1566.5-1332.8l-53.9-26.8" />
	<path
   id="path569"
   class="st0"
   d="M1512.6-1359.6l-87.7,149.9" />
	<path
   id="path570"
   class="st0"
   d="M1424.9-1209.6l53.9,26.7" />
	<path
   id="path571"
   class="st0"
   d="M1478.8-1182.9l87.7-149.9" />
	<path
   id="path572"
   class="st0"
   d="M1501.6-1418.2l11,58.6" />
	<path
   id="path573"
   class="st0"
   d="M1424.9-1209.6l-53.3,26.7" />
	<path
   id="path574"
   class="st0"
   d="M1566.5-1332.8l74.1-56.3" />
	<path
   id="path575"
   class="st0"
   d="M1463.3-1393.2l-87.7,149.9" />
	<path
   id="path576"
   class="st0"
   d="M1571.3-1236l56.9,22.3" />
	<path
   id="path577"
   class="st0"
   d="M1478.8-1182.9l62,24.3" />
	<path
   id="path578"
   class="st0"
   d="M1540.8-1158.6l30.4-77.4" />
	<path
   id="path579"
   class="st0"
   d="M1640.6-1389.1l-64.9-85.4" />
	<path
   id="path580"
   class="st0"
   d="M1575.7-1474.5l-74.1,56.3" />
	<path
   id="path581"
   class="st0"
   d="M1371.6-1116.3h107.2" />
	<path
   id="path582"
   class="st0"
   d="M1628.2-1213.7l25-85.1" />
	<path
   id="path583"
   class="st0"
   d="M1329.2-1388.5l47.4,38.6" />
	<path
   id="path584"
   class="st0"
   d="M1376.6-1349.8l-52.6,64.5" />
	<path
   id="path585"
   class="st0"
   d="M1324-1285.4l51.6,42.1" />
	<path
   id="path586"
   class="st0"
   d="M1711.3-1442.8l-64.9-85.4" />
	<path
   id="path587"
   class="st0"
   d="M1391.2-1452l-62,63.5" />
	<path
   id="path588"
   class="st0"
   d="M1371.6-1033.1h107.3" />
	<path
   id="path589"
   class="st0"
   d="M890.2-1371.6l-31.6,214.8" />
	<path
   id="path590"
   class="st0"
   d="M858.6-1156.8h107.3" />
	<path
   id="path591"
   class="st0"
   d="M965.9-1156.8l-31.6-214.8" />
	<path
   id="path592"
   class="st0"
   d="M934.3-1371.6h-44.1" />
	<path
   id="path593"
   class="st0"
   d="M832.5-1241.6l26.1,84.8" />
	<path
   id="path594"
   class="st0"
   d="M965.9-1156.8l26.1-84.8" />
	<path
   id="path595"
   class="st0"
   d="M815.5-1454.5l16.9,212.9" />
	<path
   id="path596"
   class="st0"
   d="M992-1241.6l16.9-212.9" />
	<path
   id="path597"
   class="st0"
   d="M932.2-1465.5h-39.9" />
	<path
   id="path598"
   class="st0"
   d="M890.2-1371.6l-21.7-91.4" />
	<path
   id="path599"
   class="st0"
   d="M1084.7-1454.1l-75.8-0.4" />
	<path
   id="path600"
   class="st0"
   d="M955.9-1463l-21.6,91.4" />
	<path
   id="path601"
   class="st0"
   d="M868.5-1463l-18.3-5.3" />
	<path
   id="path602"
   class="st0"
   d="M850.3-1468.4l-34.8,13.9" />
	<path
   id="path603"
   class="st0"
   d="M992-1241.6l107.2,0.6" />
	<path
   id="path604"
   class="st0"
   d="M1008.9-1454.5l-34.7-13.9" />
	<path
   id="path605"
   class="st0"
   d="M974.2-1468.4l-18.3,5.3" />
	<path
   id="path606"
   class="st0"
   d="M937.5-1483.8h-50.6" />
	<path
   id="path607"
   class="st4"
   d="M2124.3-1349.4l71.5,1l14.4-14l14.4-14l0.4-32.8l-14-14.4l-6-19.1l-164-86.1l-19.1,6l-29.1,145.5   l-19.7-3.9l-99.7,67l-3.9,19.7l-14.2,14.2v47.4l14.2,14.2l3.9,19.7l99.7,67l19.7-3.9l29.1,145.5l30.2,69.5l201.6-70.4l7.4-18.6   l-31.4-72.4l-18.6-7.4l14-14.4l-0.5-32.8l-14.4-14l-14.4-14l-71.5,1" />
	<path
   id="path608"
   class="st4"
   d="M1787.6-1091.4l-78.1-22.9l-18.7,7.2l-17.1,38.6l7.2,18.7l-19.7,3.6l-17.8,25.7l3.6,19.7   l-19.8-56.2l-70.3-6.8l-17.3,69.3l56.9,43.2l-19.3-5.3l-37.5,21.1l-5.3,19.3l-17.9-9.1l-40.9,13.5l-9.1,17.9l-11.3,16.6l9.9,52.1   l16.6,11.3l17.9,9.1l58.5-19.1l9.1-17.9l19.3,5.3l53.5-30.4l5.3-19.3l52.9,72.7l87.7-19.9l-6.8-88.6l-70.3-26.5l19.7-3.6l26.6-38.4   l-3.6-19.7l18.7-7.2l24.5-55.3L1787.6-1091.4z" />
	<path
   id="path609"
   class="st4"
   d="M2370.5-700.2v-14.2h-103.8l-14.2,14.2v96.5l-14.2-14.2h-68.2l-14.2,14.2l-14.2,14.2v137.9   l14.2,14.2l14.2,14.2h68.2l14.2-14.2v96.5v166.2h118h118v-166.2v-96.5l14.2,14.2h68.2l14.2-14.2l14.2-14.2v-137.9l-14.2-14.2   l-14.2-14.2h-68.2l-14.2,14.2v-96.5l-14.2-14.2h-103.8" />
	<path
   id="path610"
   class="st4"
   d="M1492-360.2h55.3l14.2-14.2v-38.7l-14.2-14.2l14.2-14.2v-32.7l-14.2-14.2l12.2,9.2l-2.3-15.1   l20-1.8L1593-515l-1.8-20l14.2-13.2l-14.2-13.2l14.2-13.2l-14.2-13.2l1.8-20l-15.8-18.9l-20-1.8l2.3-15.1l-12.2,9.2l14.2-14.2   v-32.7l-14.2-14.2l14.2-14.2v-38.7l-14.2-14.2l-14.2-14.2h-27l-14.2,14.2l-8,18.4l16,40.7l18.4,8l-2.4,19.9l4.2,5.4l19.9,2.4   l-18.9,6.7l-6.5,13.8l6.7,18.9l-17.1,10.5l-9.4,39.4l10.5,17.1l-10.5,17.1l9.4,39.4l17.1,10.5l-6.7,18.9l6.5,13.8l18.9,6.7   l-19.9,2.4l-4.2,5.4l2.4,19.9l-18.4,8l-16,40.7L1492-360.2z" />
	
	
	<path
   id="path613"
   class="st4"
   d="m 2156.8678,69.466102 -51.3,88.899998 29,50.1 -14.2,-14.2 h -29.6 l -14.2,14.2 -14.2,-14.2 h -74.3 l -14.2,14.2 -14.2,14.2 v 302.3 l 14.2,14.2 14.2,14.2 h 74.3 l 14.2,-14.2 14.2,14.2 h 29.6 l 14.2,-14.2 -29,50.2 51.3,88.9 58.1,-0.4 51.1,-88.5 -29,-50.2 14.2,14.2 h 29.6 l 14.2,-14.2 14.2,14.2 73.8,0.1 14.2,-14.2 14.2,14.2 h 29.8 l 14.2,-14.2 0.2,-330.7 -14.2,-14.2 h -29.6 l -14.2,14.2 -14.2,-14.2 h -74.3 l -14.2,14.2 -14.2,-14.2 h -29.6 l -14.2,14.2 29,-50.2 -51.3,-88.899998 z"
   inkscape:connector-curvature="0" />
	
	
	
	
	
	
	
	<path
   id="path621"
   class="st4"
   d="m 1746.2153,479.67119 9.7,146.7 15.1,13.2 49.3,-3.3 13.2,-15.1 -9.7,-146.7 -22.3,-334.6 -15.1,-13.2 -49.3,3.3 -13.2,15.1 -7.7,-18.5 -23.8,-9.8 -18.5,7.7 -20,-0.9 -17.5,16.1 -0.9,20 1.6,-52.1 1.7,-54.000004 -77.7,-2.4 -1.7,54.000004 -1.6,52.1 0.4,-20 -16.5,-17.1 -20,-0.4 -18,-8.8 -24.3,8.3 -8.8,18 -15.9,12.2 -39.4,304.6 12.2,15.9 -6.5,18.9 51.9,106.7 18.9,6.5 18.9,6.6 27.4,-13.2 6.6,-18.9 -1.8,58.7 77.7,2.4 1.8,-58.7 5.5,19.3 26.6,14.8 19.3,-5.5 19.3,-5.4 54.8,-96.8"
   inkscape:connector-curvature="0" />
	
	
	
	
	
	
	
	<path
   id="path629"
   class="st4"
   d="m 1152.1542,781.44237 -0.3,0.7 18.9,6.7 49.7,-23.6 6.7,-18.9 83,8.6 -0.1,-72.4 -82.8,8.6 -6.8,-18.8 -49.8,-23.3 -18.8,6.8"
   inkscape:connector-curvature="0" />
	<path
   id="path630"
   class="st4"
   d="m 1151.7542,655.74237 -18.8,6.8 -0.5,1 6.8,18.8 -29.5,-0.1 -14.2,14.1 -0.1,44.1 14.1,14.2 29.5,0.1 -6.8,18.8 0.5,1 18.8,6.8 75.5,-35.2"
   inkscape:connector-curvature="0" />
	<path
   id="path631"
   class="st4"
   d="m 940.25424,690.94237 -82.9,-8.3 0.1,72.4 82.8,-8.8 6.8,18.9 49.7,23.4 18.89996,-6.8 18.9,-6.8 0.5,-1 -6.8,-18.9 h 29.5 l 14.2,-14.2 v -44.1 l -14.2,-14.2 h -29.5 l 6.9,-18.8 -0.5,-1 -18.8,-6.9 -18.79996,-6.9 -49.8,23.2 z"
   inkscape:connector-curvature="0" />
	
	<path
   id="path633"
   class="st4"
   d="M1411.7-454.5h-55.3l-14.2,14.2v38.7l14.2,14.2l-14.2,14.2v32.7l14.2,14.2l-12.2-9.2l2.3,15.1   l-20,1.8l-15.8,18.9l1.8,20l-14.2,13.2l14.2,13.2l-14.2,13.2l14.2,13.2l-1.8,20l15.8,18.9l20,1.8l-2.3,15.1l12.2-9.2l-14.2,14.2   v32.7l14.2,14.2l-14.2,14.2v38.7l14.2,14.2l14.2,14.2h27l14.2-14.2l8-18.4l-16-40.7l-18.4-8l2.4-19.9l-4.2-5.4l-19.9-2.4l18.9-6.7   l6.5-13.8l-6.7-18.9l17.1-10.5l9.4-39.4l-10.5-17.1l10.5-17.1l-9.4-39.4l-17.1-10.5l6.7-18.9l-6.5-13.8l-18.9-6.7l19.9-2.4l4.2-5.4   l-2.4-19.9l18.4-8l16-40.7L1411.7-454.5z" />
	
	
	<path
   id="path636"
   class="st4"
   d="m 1070.2542,573.34237 -8.5,7.3 -1.5,20 17.5,9.7 136.9,-39.5 9.7,-17.5 -10.8,-52.5 -15.5,-51.3 -4.2,-30.4 1.3,-53.4 -3.8,-53.5 12.9,15.3 25.2,2.2 15.3,-12.9 -6.6,18.9 10.9,22.6 18.9,6.6 18.8,7 2.1,-1 7,-18.8 6.8,-18.8 -10.7,-22.9 -18.8,-6.8 19.7,-3.5 14.5,-20.7 -3.5,-19.7 -3.5,-19.7 -2.4,-1.7 -19.7,3.5 -19.7,3.5 -14.5,20.7 3.5,19.7 -12.9,-15.3 -25.2,-2.2 -15.3,12.9 12.8,-52.1 8.1,-53 9.5,-29.8 -158.3,-64.099997 -17.8,9.2 -8.9,28.199997 9.2,17.8 2.5,19.9 7.7,6"
   inkscape:connector-curvature="0" />
	<path
   id="path637"
   class="st4"
   d="m 1153.3542,218.44237 -114.4,-66.9 -15.9,12.2 -9.7,73.6 12.2,15.9 -84.09996,-58.7 -52.4,24.6 -8.8,102.2 47.9,32.9 92.49996,-43.3 -14.7,13.6 -2.9,73.7 13.6,14.7 124,-46.2"
   inkscape:connector-curvature="0" />
	<path
   id="path638"
   class="st4"
   d="m 1035.3542,405.94237 -6,3.2 -6,19.1 -12.1,16 4,29.5 16,12.1 -11.4,16.5 13.5,73 16.5,11.4 111,-72.7"
   inkscape:connector-curvature="0" />
	
	
	
	
	
	
	
	<path
   id="path646"
   class="st4"
   d="M839-189h148.4h80.7l-19,6.4l-23.3,46.9l6.4,19l15.2,13.1l119.7-9.1l13.1-15.2l10.1-17.3   l-8.9-33.6l-17.3-10.1h63.1l14.2-14.2l0.2-137.9l-14.2-14.2H1164l17.4-10l9.1-33.9l-10-17.4l-13.1-15.2l-120-9l-15.2,13.1l-6.4,19   l23.3,46.9l19,6.4h-80.7H838.7L839-189z" />
	
	
	<path
   id="path649"
   class="st4"
   d="M1616.5-618.1l-0.3,166.2h148.7h80.7l-19,6.4l-23.3,46.9l6.4,19l15.3,13.1l120-9l13.1-15.2   l-16.4-61.2l14.2,14.2h35l14.2-14.2l14.2-14.2L2019-604l-14.2-14.2l-14.2-14.2h-34.8l-14.2,14.2l16.1-61.1l-13.1-15.2l-119.6-9   l-15.2,13.1l-6.4,19l23.3,46.9l19,6.4H1765H1616.5z" />
	<path
   id="path650"
   class="st4"
   d="M934.6-915l-16.5,10.3l-4.5,19.5l1.6,20l91.7,78l20-1.6l38-69.3l8.2,18.3l47.3,18.1l18.3-8.2   L1262-913v-75.1l-123.3-83.1l-18.3-8.2l-47.3,18.1l-8.2,18.3l-38-69.3l-20-1.6l-91.7,78l-1.6,20l4.5,19.5l16.5,10.3" />
	<path
   id="path651"
   class="st4"
   d="M964.7-983.8l-60.1-4.2l-14.2,14.2v46.7l14.2,14.2l60.1-4.2" />
	<path
   id="path652"
   class="st4"
   d="M2395-1176.4l147.1-21.9l-19.7,3.8l-67.3,99.8l3.8,19.7v166.2h241.3V-1075l3.8-19.7l-67.3-99.8   l-19.7-3.8l147.1,21.9l16.1-11.9l20.3-136.4l-11.9-16.1l-146.8-21.8l-37-5.6l18.1-8.6l3-8.5l-8.6-18.1l19.7-3.9l67-99.7l-3.9-19.7   l-14.2-14.2H2473l-14.2,14.2l-3.9,19.7l67,99.7l19.7,3.9l-8.6,18.1l3,8.5l18.1,8.6l-37,5.6l-146.8,21.8l-11.9,16.1l20.3,136.4   L2395-1176.4z" />
	<path
   id="path653"
   class="st4"
   d="M1242.4-480.7V-722h-166.2l-16.6-11.2l-27.2,5.3l-11.2,16.6l-30.8-46.8l-14.2-14.2H838.4   l-14.2,14.2l6.7,46.8l-10.6-17l-18.5-4.3l-17,10.6l-14.1,14.2v212.9l14.2,14.2l17,10.6l18.5-4.3l10.6-17l-6.7,46.8l14.2,14.2h137.9   l14.2-14.2l30.8-46.8l11.2,16.6l27.2,5.3l16.6-11.2H1242.4z" />
	<path
   id="path654"
   class="st4"
   d="M1356.7-1347.8l-34.7,42.5l2,19.9l2,19.9l29.6,24.2l19.9-2l49.3,33.6l-19-6.3l-28,14l-6.3,19   v66.6v83.2v61.1h107.2v-61.1v-83.2v-66.6l8,18.4l35.6,14l18.4-8l18.4-8l20-51.1l-8-18.4l8,18.4l30.5,12l18.4-8l17.6-9.6l17-57.9   l-9.6-17.6l-86.6-34l19.9,2.7l51.5-39.1l2.7-19.9l70.6-53.7l2.7-19.9l-47.6-62.8l-19.9-2.7l-70.6,53.7l-19.9-2.7l-51.5,39.2   l-2.7,19.9l-11.3,16.5l5.8,30.8l16.5,11.3l-49.3-33.6l-72.1-58.8l-20,0.3l-42.2,43.1l0.3,20l2,19.9L1356.7-1347.8l19.9-2" />
	<path
   id="path655"
   class="st4"
   d="M891.4-1427.8l-5.8-24.7l-17.1-10.5l-5.2-16.3l-13,10.9l-18.4-7.9l-8.4,3.4l-8,18.4l-13,15.3   l14.7,184.7l15.3,13l-9.4,17.7l17.8,57.7l17.7,9.4l14.2,14.2h79l14.2-14.2l17.7-9.4l8-26.4" />
	<path
   id="path656"
   class="st4"
   d="M992-1241.6l-0.5,88.7l107.3,0.6l0.5-88.7l-14.6-213.1l-14.1-14.3l-47.4-0.3l-14.3,14.2   l-7.9-18.4l-8.4-3.4l-18.4,7.9l-13.1-10.9l-5.2,16.3l-17,10.5l-5.8,24.7" />
	<path
   id="path657"
   class="st4"
   d="M2097.4-1149.3l99.2-53.7h61.1v-107.2h-61.1l-99.2-53.7" />
	<path
   id="path658"
   class="st4"
   d="M1632.6-311.2l-58-33.5l-58,33.5v61.1v11.5l35.2,39.5l22.8,13.2l22.8-13.2l35.2-39.5v-11.5   V-311.2z" />
	<path
   id="path659"
   class="st4"
   d="M1792.6-300.5v35.2v43.6l58,37.1l58-37.1v-43.6v-35.2l-58-42.7L1792.6-300.5z" />
	<path
   id="path660"
   class="st4"
   d="M1720.2-346l-58,42.7v35.2v43.6l58,37.1l58-37.1v-43.6v-35.2L1720.2-346z" />
	<path
   id="path661"
   class="st4"
   d="M1500.4-201.7l-58,33.5v61.1v11.5l35.2,39.5l22.8,13.2l22.8-13.2l35.2-39.5v-11.5v-61.1   L1500.4-201.7z" />
	<path
   id="path662"
   class="st4"
   d="M934.3-1371.6l-2.1-93.9l5.4-18.3l12.6-35.2h-75.7l12.6,35.2l5.2,18.3l-2.1,93.9" />
</g>
</svg>