<?xml version="1.0" encoding="utf-8"?>
<!-- Generator: Adobe Illustrator 21.1.0, SVG Export Plug-In . SVG Version: 6.00 Build 0)  -->
<svg version="1.1"
	 id="svg16" inkscape:version="0.92.2 5c3e80d, 2017-08-06" sodipodi:docname="innergrid.svg" xmlns:cc="http://creativecommons.org/ns#" xmlns:dc="http://purl.org/dc/elements/1.1/" xmlns:inkscape="http://www.inkscape.org/namespaces/inkscape" xmlns:rdf="http://www.w3.org/1999/02/22-rdf-syntax-ns#" xmlns:sodipodi="http://sodipodi.sourceforge.net/DTD/sodipodi-0.dtd" xmlns:svg="http://www.w3.org/2000/svg"
	 xmlns="http://www.w3.org/2000/svg" xmlns:xlink="http://www.w3.org/1999/xlink" x="0px" y="0px" viewBox="0 0 1728 1296"
	 style="enable-background:new 0 0 1728 1296;" xml:space="preserve">
<style type="text/css">
	.st0{fill:#FFFFFF;stroke:#000000;stroke-width:1.000000e-03;stroke-miterlimit:10;}
</style>
<sodipodi:namedview  bordercolor="#666666" borderlayer="true" borderopacity="1.0" id="base" inkscape:current-layer="layer1" inkscape:cx="83.569197" inkscape:cy="900.82683" inkscape:document-units="cm" inkscape:pagecheckerboard="false" inkscape:pageopacity="0.0" inkscape:pageshadow="2" inkscape:showpageshadow="false" inkscape:window-height="801" inkscape:window-maximized="1" inkscape:window-width="1440" inkscape:window-x="0" inkscape:window-y="1" inkscape:zoom="0.3" pagecolor="#ffffff" showgrid="true" showguides="false" units="in">
	</sodipodi:namedview>
<g id="layer1" transform="translate(0,160.20002)" inkscape:groupmode="layer" inkscape:label="Layer 1">
	
		<path id="rect3709" inkscape:connector-curvature="0" sodipodi:nodetypes="ccccccccccccccccccccccccccccccccccccccccc" class="st0" d="
		M713-91.7v-51H18.5v51h56.7v-25.5h14.2v25.5h56.7v-25.5h14.2v25.5h56.7v-25.5h14.2v25.5h56.7v-25.5H302v25.5h56.7v-25.5h14.2v25.5
		h56.7v-25.5h14.2v25.5l56.7,0v-25.5h14.2v25.5h56.7v-25.5h14.2v25.5h56.7v-25.5h14.2v25.5L713-91.7z"/>
	
		<path id="rect3709-1" inkscape:connector-curvature="0" sodipodi:nodetypes="ccccccccccccccccccccccccccccccccccccccccc" class="st0" d="
		M1407.5-91.7v-51H713v51h56.7v-25.5h14.2v25.5h56.7v-25.5h14.2v25.5h56.7v-25.5h14.2v25.5h56.7v-25.5h14.2v25.5h56.7v-25.5h14.2
		v25.5h56.7v-25.5h14.2v25.5l56.7,0v-25.5h14.2v25.5h56.7v-25.5h14.2v25.5h56.7v-25.5h14.2v25.5L1407.5-91.7z"/>
	
		<path id="rect3709-7" inkscape:connector-curvature="0" sodipodi:nodetypes="ccccccccccccccccccccccccccccccccccccccccc" class="st0" d="
		M713-33.2v-51H18.5v51h56.7v-25.5h14.2v25.5h56.7v-25.5h14.2v25.5h56.7v-25.5h14.2v25.5h56.7v-25.5H302v25.5h56.7v-25.5h14.2v25.5
		h56.7v-25.5h14.2v25.5l56.7,0v-25.5h14.2v25.5h56.7v-25.5h14.2v25.5h56.7v-25.5h14.2v25.5L713-33.2z"/>
	
		<path id="rect3709-1-1" inkscape:connector-curvature="0" sodipodi:nodetypes="ccccccccccccccccccccccccccccccccccccccccc" class="st0" d="
		M1407.5-33.2v-51H713v51h56.7v-25.5h14.2v25.5h56.7v-25.5h14.2v25.5h56.7v-25.5h14.2v25.5h56.7v-25.5h14.2v25.5h56.7v-25.5h14.2
		v25.5h56.7v-25.5h14.2v25.5l56.7,0v-25.5h14.2v25.5h56.7v-25.5h14.2v25.5h56.7v-25.5h14.2v25.5L1407.5-33.2z"/>
	
		<path id="rect3709-7-4" inkscape:connector-curvature="0" sodipodi:nodetypes="ccccccccccccccccccccccccccccccccccccccccc" class="st0" d="
		M713,25.3v-51H18.5v51h56.7V-0.2h14.2v25.5h56.7V-0.2h14.2v25.5h56.7V-0.2h14.2v25.5h56.7V-0.2H302v25.5h56.7V-0.2h14.2v25.5h56.7
		V-0.2h14.2v25.5l56.7,0V-0.2h14.2v25.5h56.7V-0.2h14.2v25.5h56.7V-0.2h14.2v25.5L713,25.3z"/>
	
		<path id="rect3709-1-1-8" inkscape:connector-curvature="0" sodipodi:nodetypes="ccccccccccccccccccccccccccccccccccccccccc" class="st0" d="
		M1407.5,25.3v-51H713v51h56.7V-0.2h14.2v25.5h56.7V-0.2h14.2v25.5h56.7V-0.2h14.2v25.5h56.7V-0.2h14.2v25.5h56.7V-0.2h14.2v25.5
		h56.7V-0.2h14.2v25.5l56.7,0V-0.2h14.2v25.5h56.7V-0.2h14.2v25.5h56.7V-0.2h14.2v25.5L1407.5,25.3z"/>
	
		<path id="rect3709-0" inkscape:connector-curvature="0" sodipodi:nodetypes="ccccccccccccccccccccccccccccccccccccccccc" class="st0" d="
		M713,82.4v-51H18.5v51h56.7V56.8h14.2v25.5h56.7V56.8h14.2v25.5h56.7V56.8h14.2v25.5h56.7V56.8H302v25.5h56.7V56.8h14.2v25.5h56.7
		V56.8h14.2v25.5l56.7,0V56.8h14.2v25.5h56.7V56.8h14.2v25.5h56.7V56.8h14.2v25.5L713,82.4z"/>
	
		<path id="rect3709-1-4" inkscape:connector-curvature="0" sodipodi:nodetypes="ccccccccccccccccccccccccccccccccccccccccc" class="st0" d="
		M1407.5,82.4v-51H713v51h56.7V56.8h14.2v25.5h56.7V56.8h14.2v25.5h56.7V56.8h14.2v25.5h56.7V56.8h14.2v25.5h56.7V56.8h14.2v25.5
		h56.7V56.8h14.2v25.5l56.7,0V56.8h14.2v25.5h56.7V56.8h14.2v25.5h56.7V56.8h14.2v25.5L1407.5,82.4z"/>
	
		<path id="rect3709-7-6" inkscape:connector-curvature="0" sodipodi:nodetypes="ccccccccccccccccccccccccccccccccccccccccc" class="st0" d="
		M713,140.9v-51H18.5v51h56.7v-25.5h14.2v25.5h56.7v-25.5h14.2v25.5h56.7v-25.5h14.2v25.5h56.7v-25.5H302v25.5h56.7v-25.5h14.2v25.5
		h56.7v-25.5h14.2v25.5l56.7,0v-25.5h14.2v25.5h56.7v-25.5h14.2v25.5h56.7v-25.5h14.2v25.5L713,140.9z"/>
	
		<path id="rect3709-1-1-0" inkscape:connector-curvature="0" sodipodi:nodetypes="ccccccccccccccccccccccccccccccccccccccccc" class="st0" d="
		M1407.5,140.9v-51H713v51h56.7v-25.5h14.2v25.5h56.7v-25.5h14.2v25.5h56.7v-25.5h14.2v25.5h56.7v-25.5h14.2v25.5h56.7v-25.5h14.2
		v25.5h56.7v-25.5h14.2v25.5l56.7,0v-25.5h14.2v25.5h56.7v-25.5h14.2v25.5h56.7v-25.5h14.2v25.5L1407.5,140.9z"/>
	
		<path id="rect3709-7-4-3" inkscape:connector-curvature="0" sodipodi:nodetypes="ccccccccccccccccccccccccccccccccccccccccc" class="st0" d="
		M713,199.4v-51H18.5v51h56.7v-25.5h14.2v25.5h56.7v-25.5h14.2v25.5h56.7v-25.5h14.2v25.5h56.7v-25.5H302v25.5h56.7v-25.5h14.2v25.5
		h56.7v-25.5h14.2v25.5l56.7,0v-25.5h14.2v25.5h56.7v-25.5h14.2v25.5h56.7v-25.5h14.2v25.5L713,199.4z"/>
	
		<path id="rect3709-1-1-8-2" inkscape:connector-curvature="0" sodipodi:nodetypes="ccccccccccccccccccccccccccccccccccccccccc" class="st0" d="
		M1407.5,199.4v-51H713v51h56.7v-25.5h14.2v25.5h56.7v-25.5h14.2v25.5h56.7v-25.5h14.2v25.5h56.7v-25.5h14.2v25.5h56.7v-25.5h14.2
		v25.5h56.7v-25.5h14.2v25.5l56.7,0v-25.5h14.2v25.5h56.7v-25.5h14.2v25.5h56.7v-25.5h14.2v25.5L1407.5,199.4z"/>
	
		<path id="rect3709-0-6" inkscape:connector-curvature="0" sodipodi:nodetypes="ccccccccccccccccccccccccccccccccccccccccc" class="st0" d="
		M713,259.4v-51H18.5v51h56.7v-25.5h14.2v25.5h56.7v-25.5h14.2v25.5h56.7v-25.5h14.2v25.5h56.7v-25.5H302v25.5h56.7v-25.5h14.2v25.5
		h56.7v-25.5h14.2v25.5l56.7,0v-25.5h14.2v25.5h56.7v-25.5h14.2v25.5h56.7v-25.5h14.2v25.5L713,259.4z"/>
	
		<path id="rect3709-1-4-9" inkscape:connector-curvature="0" sodipodi:nodetypes="ccccccccccccccccccccccccccccccccccccccccc" class="st0" d="
		M1407.5,259.4v-51H713v51h56.7v-25.5h14.2v25.5h56.7v-25.5h14.2v25.5h56.7v-25.5h14.2v25.5h56.7v-25.5h14.2v25.5h56.7v-25.5h14.2
		v25.5h56.7v-25.5h14.2v25.5l56.7,0v-25.5h14.2v25.5h56.7v-25.5h14.2v25.5h56.7v-25.5h14.2v25.5L1407.5,259.4z"/>
	
		<path id="rect3709-7-6-4" inkscape:connector-curvature="0" sodipodi:nodetypes="ccccccccccccccccccccccccccccccccccccccccc" class="st0" d="
		M713,318v-51H18.5v51h56.7v-25.5h14.2V318h56.7v-25.5h14.2V318h56.7v-25.5h14.2V318h56.7v-25.5H302V318h56.7v-25.5h14.2V318h56.7
		v-25.5h14.2V318l56.7,0v-25.5h14.2V318h56.7v-25.5h14.2V318h56.7v-25.5h14.2V318L713,318z"/>
	
		<path id="rect3709-1-1-0-1" inkscape:connector-curvature="0" sodipodi:nodetypes="ccccccccccccccccccccccccccccccccccccccccc" class="st0" d="
		M1407.5,318v-51H713v51h56.7v-25.5h14.2V318h56.7v-25.5h14.2V318h56.7v-25.5h14.2V318h56.7v-25.5h14.2V318h56.7v-25.5h14.2V318
		h56.7v-25.5h14.2V318l56.7,0v-25.5h14.2V318h56.7v-25.5h14.2V318h56.7v-25.5h14.2V318L1407.5,318z"/>
	
		<path id="rect3709-7-4-3-3" inkscape:connector-curvature="0" sodipodi:nodetypes="ccccccccccccccccccccccccccccccccccccccccc" class="st0" d="
		M713,376.5v-51H18.5v51h56.7V351h14.2v25.5h56.7V351h14.2v25.5h56.7V351h14.2v25.5h56.7V351H302v25.5h56.7V351h14.2v25.5h56.7V351
		h14.2v25.5l56.7,0V351h14.2v25.5h56.7V351h14.2v25.5h56.7V351h14.2v25.5L713,376.5z"/>
	
		<path id="rect3709-1-1-8-2-7" inkscape:connector-curvature="0" sodipodi:nodetypes="ccccccccccccccccccccccccccccccccccccccccc" class="st0" d="
		M1407.5,376.5v-51H713v51h56.7V351h14.2v25.5h56.7V351h14.2v25.5h56.7V351h14.2v25.5h56.7V351h14.2v25.5h56.7V351h14.2v25.5h56.7
		V351h14.2v25.5l56.7,0V351h14.2v25.5h56.7V351h14.2v25.5h56.7V351h14.2v25.5L1407.5,376.5z"/>
</g>
</svg>
