<?xml version="1.0" encoding="utf-8"?>
<!-- Generator: Adobe Illustrator 21.1.0, SVG Export Plug-In . SVG Version: 6.00 Build 0)  -->
<svg version="1.1" id="Layer_1" xmlns="http://www.w3.org/2000/svg" xmlns:xlink="http://www.w3.org/1999/xlink" x="0px" y="0px"
	 viewBox="0 0 1728 1296" style="enable-background:new 0 0 1728 1296;" xml:space="preserve">
<style type="text/css">
	.st0{fill:none;stroke:#010101;stroke-width:1.000000e-03;stroke-miterlimit:10;}
	.st1{fill:none;stroke:#000000;stroke-width:1.000000e-03;stroke-miterlimit:1;}
</style>
<rect x="13.1" y="12.1" class="st0" width="694.5" height="694.5"/>
<g>
	<circle class="st1" cx="38.5" cy="20.5" r="2.5"/>
	<circle class="st1" cx="48.5" cy="20.5" r="2.5"/>
	<circle class="st1" cx="58.5" cy="20.5" r="2.5"/>
	<circle class="st1" cx="38.5" cy="71.5" r="2.5"/>
	<circle class="st1" cx="48.5" cy="71.5" r="2.5"/>
	<circle class="st1" cx="58.5" cy="71.5" r="2.5"/>
</g>
<g>
	<circle class="st1" cx="107.5" cy="20.5" r="2.5"/>
	<circle class="st1" cx="117.5" cy="20.5" r="2.5"/>
	<circle class="st1" cx="127.5" cy="20.5" r="2.5"/>
	<circle class="st1" cx="107.5" cy="71.5" r="2.5"/>
	<circle class="st1" cx="117.5" cy="71.5" r="2.5"/>
	<circle class="st1" cx="127.5" cy="71.5" r="2.5"/>
</g>
<g>
	<circle class="st1" cx="177.5" cy="20.5" r="2.5"/>
	<circle class="st1" cx="187.5" cy="20.5" r="2.5"/>
	<circle class="st1" cx="197.5" cy="20.5" r="2.5"/>
	<circle class="st1" cx="177.5" cy="71.5" r="2.5"/>
	<circle class="st1" cx="187.5" cy="71.5" r="2.5"/>
	<circle class="st1" cx="197.5" cy="71.5" r="2.5"/>
</g>
<g>
	<circle class="st1" cx="246.5" cy="20.5" r="2.5"/>
	<circle class="st1" cx="256.5" cy="20.5" r="2.5"/>
	<circle class="st1" cx="266.5" cy="20.5" r="2.5"/>
	<circle class="st1" cx="246.5" cy="71.5" r="2.5"/>
	<circle class="st1" cx="256.5" cy="71.5" r="2.5"/>
	<circle class="st1" cx="266.5" cy="71.5" r="2.5"/>
</g>
<g>
	<circle class="st1" cx="316.5" cy="20.5" r="2.5"/>
	<circle class="st1" cx="326.5" cy="20.5" r="2.5"/>
	<circle class="st1" cx="336.5" cy="20.5" r="2.5"/>
	<circle class="st1" cx="316.5" cy="71.5" r="2.5"/>
	<circle class="st1" cx="326.5" cy="71.5" r="2.5"/>
	<circle class="st1" cx="336.5" cy="71.5" r="2.5"/>
</g>
<g>
	<circle class="st1" cx="385.5" cy="20.5" r="2.5"/>
	<circle class="st1" cx="395.5" cy="20.5" r="2.5"/>
	<circle class="st1" cx="405.5" cy="20.5" r="2.5"/>
	<circle class="st1" cx="385.5" cy="71.5" r="2.5"/>
	<circle class="st1" cx="395.5" cy="71.5" r="2.5"/>
	<circle class="st1" cx="405.5" cy="71.5" r="2.5"/>
</g>
<g>
	<circle class="st1" cx="454.5" cy="20.5" r="2.5"/>
	<circle class="st1" cx="464.5" cy="20.5" r="2.5"/>
	<circle class="st1" cx="474.5" cy="20.5" r="2.5"/>
	<circle class="st1" cx="454.5" cy="71.5" r="2.5"/>
	<circle class="st1" cx="464.5" cy="71.5" r="2.5"/>
	<circle class="st1" cx="474.5" cy="71.5" r="2.5"/>
</g>
<g>
	<circle class="st1" cx="524.5" cy="20.5" r="2.5"/>
	<circle class="st1" cx="534.5" cy="20.5" r="2.5"/>
	<circle class="st1" cx="544.5" cy="20.5" r="2.5"/>
	<circle class="st1" cx="524.5" cy="71.5" r="2.5"/>
	<circle class="st1" cx="534.5" cy="71.5" r="2.5"/>
	<circle class="st1" cx="544.5" cy="71.5" r="2.5"/>
</g>
<g>
	<circle class="st1" cx="593.5" cy="20.5" r="2.5"/>
	<circle class="st1" cx="603.5" cy="20.5" r="2.5"/>
	<circle class="st1" cx="613.5" cy="20.5" r="2.5"/>
	<circle class="st1" cx="593.5" cy="71.5" r="2.5"/>
	<circle class="st1" cx="603.5" cy="71.5" r="2.5"/>
	<circle class="st1" cx="613.5" cy="71.5" r="2.5"/>
</g>
<g>
	<circle class="st1" cx="662.5" cy="20.5" r="2.5"/>
	<circle class="st1" cx="672.5" cy="20.5" r="2.5"/>
	<circle class="st1" cx="682.5" cy="20.5" r="2.5"/>
	<circle class="st1" cx="662.5" cy="71.5" r="2.5"/>
	<circle class="st1" cx="672.5" cy="71.5" r="2.5"/>
	<circle class="st1" cx="682.5" cy="71.5" r="2.5"/>
</g>
<g>
	<circle class="st1" cx="38.5" cy="90.5" r="2.5"/>
	<circle class="st1" cx="48.5" cy="90.5" r="2.5"/>
	<circle class="st1" cx="58.5" cy="90.5" r="2.5"/>
	<circle class="st1" cx="38.5" cy="141.5" r="2.5"/>
	<circle class="st1" cx="48.5" cy="141.5" r="2.5"/>
	<circle class="st1" cx="58.5" cy="141.5" r="2.5"/>
</g>
<g>
	<circle class="st1" cx="107.5" cy="90.5" r="2.5"/>
	<circle class="st1" cx="117.5" cy="90.5" r="2.5"/>
	<circle class="st1" cx="127.5" cy="90.5" r="2.5"/>
	<circle class="st1" cx="107.5" cy="141.5" r="2.5"/>
	<circle class="st1" cx="117.5" cy="141.5" r="2.5"/>
	<circle class="st1" cx="127.5" cy="141.5" r="2.5"/>
</g>
<g>
	<circle class="st1" cx="177.5" cy="90.5" r="2.5"/>
	<circle class="st1" cx="187.5" cy="90.5" r="2.5"/>
	<circle class="st1" cx="197.5" cy="90.5" r="2.5"/>
	<circle class="st1" cx="177.5" cy="141.5" r="2.5"/>
	<circle class="st1" cx="187.5" cy="141.5" r="2.5"/>
	<circle class="st1" cx="197.5" cy="141.5" r="2.5"/>
</g>
<g>
	<circle class="st1" cx="246.5" cy="90.5" r="2.5"/>
	<circle class="st1" cx="256.5" cy="90.5" r="2.5"/>
	<circle class="st1" cx="266.5" cy="90.5" r="2.5"/>
	<circle class="st1" cx="246.5" cy="141.5" r="2.5"/>
	<circle class="st1" cx="256.5" cy="141.5" r="2.5"/>
	<circle class="st1" cx="266.5" cy="141.5" r="2.5"/>
</g>
<g>
	<circle class="st1" cx="316.5" cy="90.5" r="2.5"/>
	<circle class="st1" cx="326.5" cy="90.5" r="2.5"/>
	<circle class="st1" cx="336.5" cy="90.5" r="2.5"/>
	<circle class="st1" cx="316.5" cy="141.5" r="2.5"/>
	<circle class="st1" cx="326.5" cy="141.5" r="2.5"/>
	<circle class="st1" cx="336.5" cy="141.5" r="2.5"/>
</g>
<g>
	<circle class="st1" cx="385.5" cy="90.5" r="2.5"/>
	<circle class="st1" cx="395.5" cy="90.5" r="2.5"/>
	<circle class="st1" cx="405.5" cy="90.5" r="2.5"/>
	<circle class="st1" cx="385.5" cy="141.5" r="2.5"/>
	<circle class="st1" cx="395.5" cy="141.5" r="2.5"/>
	<circle class="st1" cx="405.5" cy="141.5" r="2.5"/>
</g>
<g>
	<circle class="st1" cx="454.5" cy="90.5" r="2.5"/>
	<circle class="st1" cx="464.5" cy="90.5" r="2.5"/>
	<circle class="st1" cx="474.5" cy="90.5" r="2.5"/>
	<circle class="st1" cx="454.5" cy="141.5" r="2.5"/>
	<circle class="st1" cx="464.5" cy="141.5" r="2.5"/>
	<circle class="st1" cx="474.5" cy="141.5" r="2.5"/>
</g>
<g>
	<circle class="st1" cx="524.5" cy="90.5" r="2.5"/>
	<circle class="st1" cx="534.5" cy="90.5" r="2.5"/>
	<circle class="st1" cx="544.5" cy="90.5" r="2.5"/>
	<circle class="st1" cx="524.5" cy="141.5" r="2.5"/>
	<circle class="st1" cx="534.5" cy="141.5" r="2.5"/>
	<circle class="st1" cx="544.5" cy="141.5" r="2.5"/>
</g>
<g>
	<circle class="st1" cx="593.5" cy="90.5" r="2.5"/>
	<circle class="st1" cx="603.5" cy="90.5" r="2.5"/>
	<circle class="st1" cx="613.5" cy="90.5" r="2.5"/>
	<circle class="st1" cx="593.5" cy="141.5" r="2.5"/>
	<circle class="st1" cx="603.5" cy="141.5" r="2.5"/>
	<circle class="st1" cx="613.5" cy="141.5" r="2.5"/>
</g>
<g>
	<circle class="st1" cx="662.5" cy="90.5" r="2.5"/>
	<circle class="st1" cx="672.5" cy="90.5" r="2.5"/>
	<circle class="st1" cx="682.5" cy="90.5" r="2.5"/>
	<circle class="st1" cx="662.5" cy="141.5" r="2.5"/>
	<circle class="st1" cx="672.5" cy="141.5" r="2.5"/>
	<circle class="st1" cx="682.5" cy="141.5" r="2.5"/>
</g>
<g>
	<circle class="st1" cx="38.5" cy="159.5" r="2.5"/>
	<circle class="st1" cx="48.5" cy="159.5" r="2.5"/>
	<circle class="st1" cx="58.5" cy="159.5" r="2.5"/>
	<circle class="st1" cx="38.5" cy="210.5" r="2.5"/>
	<circle class="st1" cx="48.5" cy="210.5" r="2.5"/>
	<circle class="st1" cx="58.5" cy="210.5" r="2.5"/>
</g>
<g>
	<circle class="st1" cx="107.5" cy="159.5" r="2.5"/>
	<circle class="st1" cx="117.5" cy="159.5" r="2.5"/>
	<circle class="st1" cx="127.5" cy="159.5" r="2.5"/>
	<circle class="st1" cx="107.5" cy="210.5" r="2.5"/>
	<circle class="st1" cx="117.5" cy="210.5" r="2.5"/>
	<circle class="st1" cx="127.5" cy="210.5" r="2.5"/>
</g>
<g>
	<circle class="st1" cx="177.5" cy="159.5" r="2.5"/>
	<circle class="st1" cx="187.5" cy="159.5" r="2.5"/>
	<circle class="st1" cx="197.5" cy="159.5" r="2.5"/>
	<circle class="st1" cx="177.5" cy="210.5" r="2.5"/>
	<circle class="st1" cx="187.5" cy="210.5" r="2.5"/>
	<circle class="st1" cx="197.5" cy="210.5" r="2.5"/>
</g>
<g>
	<circle class="st1" cx="246.5" cy="159.5" r="2.5"/>
	<circle class="st1" cx="256.5" cy="159.5" r="2.5"/>
	<circle class="st1" cx="266.5" cy="159.5" r="2.5"/>
	<circle class="st1" cx="246.5" cy="210.5" r="2.5"/>
	<circle class="st1" cx="256.5" cy="210.5" r="2.5"/>
	<circle class="st1" cx="266.5" cy="210.5" r="2.5"/>
</g>
<g>
	<circle class="st1" cx="316.5" cy="159.5" r="2.5"/>
	<circle class="st1" cx="326.5" cy="159.5" r="2.5"/>
	<circle class="st1" cx="336.5" cy="159.5" r="2.5"/>
	<circle class="st1" cx="316.5" cy="210.5" r="2.5"/>
	<circle class="st1" cx="326.5" cy="210.5" r="2.5"/>
	<circle class="st1" cx="336.5" cy="210.5" r="2.5"/>
</g>
<g>
	<circle class="st1" cx="385.5" cy="159.5" r="2.5"/>
	<circle class="st1" cx="395.5" cy="159.5" r="2.5"/>
	<circle class="st1" cx="405.5" cy="159.5" r="2.5"/>
	<circle class="st1" cx="385.5" cy="210.5" r="2.5"/>
	<circle class="st1" cx="395.5" cy="210.5" r="2.5"/>
	<circle class="st1" cx="405.5" cy="210.5" r="2.5"/>
</g>
<g>
	<circle class="st1" cx="454.5" cy="159.5" r="2.5"/>
	<circle class="st1" cx="464.5" cy="159.5" r="2.5"/>
	<circle class="st1" cx="474.5" cy="159.5" r="2.5"/>
	<circle class="st1" cx="454.5" cy="210.5" r="2.5"/>
	<circle class="st1" cx="464.5" cy="210.5" r="2.5"/>
	<circle class="st1" cx="474.5" cy="210.5" r="2.5"/>
</g>
<g>
	<circle class="st1" cx="524.5" cy="159.5" r="2.5"/>
	<circle class="st1" cx="534.5" cy="159.5" r="2.5"/>
	<circle class="st1" cx="544.5" cy="159.5" r="2.5"/>
	<circle class="st1" cx="524.5" cy="210.5" r="2.5"/>
	<circle class="st1" cx="534.5" cy="210.5" r="2.5"/>
	<circle class="st1" cx="544.5" cy="210.5" r="2.5"/>
</g>
<g>
	<circle class="st1" cx="593.5" cy="159.5" r="2.5"/>
	<circle class="st1" cx="603.5" cy="159.5" r="2.5"/>
	<circle class="st1" cx="613.5" cy="159.5" r="2.5"/>
	<circle class="st1" cx="593.5" cy="210.5" r="2.5"/>
	<circle class="st1" cx="603.5" cy="210.5" r="2.5"/>
	<circle class="st1" cx="613.5" cy="210.5" r="2.5"/>
</g>
<g>
	<circle class="st1" cx="662.5" cy="159.5" r="2.5"/>
	<circle class="st1" cx="672.5" cy="159.5" r="2.5"/>
	<circle class="st1" cx="682.5" cy="159.5" r="2.5"/>
	<circle class="st1" cx="662.5" cy="210.5" r="2.5"/>
	<circle class="st1" cx="672.5" cy="210.5" r="2.5"/>
	<circle class="st1" cx="682.5" cy="210.5" r="2.5"/>
</g>
<g>
	<circle class="st1" cx="38.5" cy="229.5" r="2.5"/>
	<circle class="st1" cx="48.5" cy="229.5" r="2.5"/>
	<circle class="st1" cx="58.5" cy="229.5" r="2.5"/>
	<circle class="st1" cx="38.5" cy="280.5" r="2.5"/>
	<circle class="st1" cx="48.5" cy="280.5" r="2.5"/>
	<circle class="st1" cx="58.5" cy="280.5" r="2.5"/>
</g>
<g>
	<circle class="st1" cx="107.5" cy="229.5" r="2.5"/>
	<circle class="st1" cx="117.5" cy="229.5" r="2.5"/>
	<circle class="st1" cx="127.5" cy="229.5" r="2.5"/>
	<circle class="st1" cx="107.5" cy="280.5" r="2.5"/>
	<circle class="st1" cx="117.5" cy="280.5" r="2.5"/>
	<circle class="st1" cx="127.5" cy="280.5" r="2.5"/>
</g>
<g>
	<circle class="st1" cx="177.5" cy="229.5" r="2.5"/>
	<circle class="st1" cx="187.5" cy="229.5" r="2.5"/>
	<circle class="st1" cx="197.5" cy="229.5" r="2.5"/>
	<circle class="st1" cx="177.5" cy="280.5" r="2.5"/>
	<circle class="st1" cx="187.5" cy="280.5" r="2.5"/>
	<circle class="st1" cx="197.5" cy="280.5" r="2.5"/>
</g>
<g>
	<circle class="st1" cx="246.5" cy="229.5" r="2.5"/>
	<circle class="st1" cx="256.5" cy="229.5" r="2.5"/>
	<circle class="st1" cx="266.5" cy="229.5" r="2.5"/>
	<circle class="st1" cx="246.5" cy="280.5" r="2.5"/>
	<circle class="st1" cx="256.5" cy="280.5" r="2.5"/>
	<circle class="st1" cx="266.5" cy="280.5" r="2.5"/>
</g>
<g>
	<circle class="st1" cx="316.5" cy="229.5" r="2.5"/>
	<circle class="st1" cx="326.5" cy="229.5" r="2.5"/>
	<circle class="st1" cx="336.5" cy="229.5" r="2.5"/>
	<circle class="st1" cx="316.5" cy="280.5" r="2.5"/>
	<circle class="st1" cx="326.5" cy="280.5" r="2.5"/>
	<circle class="st1" cx="336.5" cy="280.5" r="2.5"/>
</g>
<g>
	<circle class="st1" cx="385.5" cy="229.5" r="2.5"/>
	<circle class="st1" cx="395.5" cy="229.5" r="2.5"/>
	<circle class="st1" cx="405.5" cy="229.5" r="2.5"/>
	<circle class="st1" cx="385.5" cy="280.5" r="2.5"/>
	<circle class="st1" cx="395.5" cy="280.5" r="2.5"/>
	<circle class="st1" cx="405.5" cy="280.5" r="2.5"/>
</g>
<g>
	<circle class="st1" cx="454.5" cy="229.5" r="2.5"/>
	<circle class="st1" cx="464.5" cy="229.5" r="2.5"/>
	<circle class="st1" cx="474.5" cy="229.5" r="2.5"/>
	<circle class="st1" cx="454.5" cy="280.5" r="2.5"/>
	<circle class="st1" cx="464.5" cy="280.5" r="2.5"/>
	<circle class="st1" cx="474.5" cy="280.5" r="2.5"/>
</g>
<g>
	<circle class="st1" cx="524.5" cy="229.5" r="2.5"/>
	<circle class="st1" cx="534.5" cy="229.5" r="2.5"/>
	<circle class="st1" cx="544.5" cy="229.5" r="2.5"/>
	<circle class="st1" cx="524.5" cy="280.5" r="2.5"/>
	<circle class="st1" cx="534.5" cy="280.5" r="2.5"/>
	<circle class="st1" cx="544.5" cy="280.5" r="2.5"/>
</g>
<g>
	<circle class="st1" cx="593.5" cy="229.5" r="2.5"/>
	<circle class="st1" cx="603.5" cy="229.5" r="2.5"/>
	<circle class="st1" cx="613.5" cy="229.5" r="2.5"/>
	<circle class="st1" cx="593.5" cy="280.5" r="2.5"/>
	<circle class="st1" cx="603.5" cy="280.5" r="2.5"/>
	<circle class="st1" cx="613.5" cy="280.5" r="2.5"/>
</g>
<g>
	<circle class="st1" cx="662.5" cy="229.5" r="2.5"/>
	<circle class="st1" cx="672.5" cy="229.5" r="2.5"/>
	<circle class="st1" cx="682.5" cy="229.5" r="2.5"/>
	<circle class="st1" cx="662.5" cy="280.5" r="2.5"/>
	<circle class="st1" cx="672.5" cy="280.5" r="2.5"/>
	<circle class="st1" cx="682.5" cy="280.5" r="2.5"/>
</g>
<g>
	<circle class="st1" cx="38.5" cy="298.5" r="2.5"/>
	<circle class="st1" cx="48.5" cy="298.5" r="2.5"/>
	<circle class="st1" cx="58.5" cy="298.5" r="2.5"/>
	<circle class="st1" cx="38.5" cy="349.5" r="2.5"/>
	<circle class="st1" cx="48.5" cy="349.5" r="2.5"/>
	<circle class="st1" cx="58.5" cy="349.5" r="2.5"/>
</g>
<g>
	<circle class="st1" cx="107.5" cy="298.5" r="2.5"/>
	<circle class="st1" cx="117.5" cy="298.5" r="2.5"/>
	<circle class="st1" cx="127.5" cy="298.5" r="2.5"/>
	<circle class="st1" cx="107.5" cy="349.5" r="2.5"/>
	<circle class="st1" cx="117.5" cy="349.5" r="2.5"/>
	<circle class="st1" cx="127.5" cy="349.5" r="2.5"/>
</g>
<g>
	<circle class="st1" cx="177.5" cy="298.5" r="2.5"/>
	<circle class="st1" cx="187.5" cy="298.5" r="2.5"/>
	<circle class="st1" cx="197.5" cy="298.5" r="2.5"/>
	<circle class="st1" cx="177.5" cy="349.5" r="2.5"/>
	<circle class="st1" cx="187.5" cy="349.5" r="2.5"/>
	<circle class="st1" cx="197.5" cy="349.5" r="2.5"/>
</g>
<g>
	<circle class="st1" cx="246.5" cy="298.5" r="2.5"/>
	<circle class="st1" cx="256.5" cy="298.5" r="2.5"/>
	<circle class="st1" cx="266.5" cy="298.5" r="2.5"/>
	<circle class="st1" cx="246.5" cy="349.5" r="2.5"/>
	<circle class="st1" cx="256.5" cy="349.5" r="2.5"/>
	<circle class="st1" cx="266.5" cy="349.5" r="2.5"/>
</g>
<g>
	<circle class="st1" cx="316.5" cy="298.5" r="2.5"/>
	<circle class="st1" cx="326.5" cy="298.5" r="2.5"/>
	<circle class="st1" cx="336.5" cy="298.5" r="2.5"/>
	<circle class="st1" cx="316.5" cy="349.5" r="2.5"/>
	<circle class="st1" cx="326.5" cy="349.5" r="2.5"/>
	<circle class="st1" cx="336.5" cy="349.5" r="2.5"/>
</g>
<g>
	<circle class="st1" cx="385.5" cy="298.5" r="2.5"/>
	<circle class="st1" cx="395.5" cy="298.5" r="2.5"/>
	<circle class="st1" cx="405.5" cy="298.5" r="2.5"/>
	<circle class="st1" cx="385.5" cy="349.5" r="2.5"/>
	<circle class="st1" cx="395.5" cy="349.5" r="2.5"/>
	<circle class="st1" cx="405.5" cy="349.5" r="2.5"/>
</g>
<g>
	<circle class="st1" cx="454.5" cy="298.5" r="2.5"/>
	<circle class="st1" cx="464.5" cy="298.5" r="2.5"/>
	<circle class="st1" cx="474.5" cy="298.5" r="2.5"/>
	<circle class="st1" cx="454.5" cy="349.5" r="2.5"/>
	<circle class="st1" cx="464.5" cy="349.5" r="2.5"/>
	<circle class="st1" cx="474.5" cy="349.5" r="2.5"/>
</g>
<g>
	<circle class="st1" cx="524.5" cy="298.5" r="2.5"/>
	<circle class="st1" cx="534.5" cy="298.5" r="2.5"/>
	<circle class="st1" cx="544.5" cy="298.5" r="2.5"/>
	<circle class="st1" cx="524.5" cy="349.5" r="2.5"/>
	<circle class="st1" cx="534.5" cy="349.5" r="2.5"/>
	<circle class="st1" cx="544.5" cy="349.5" r="2.5"/>
</g>
<g>
	<circle class="st1" cx="593.5" cy="298.5" r="2.5"/>
	<circle class="st1" cx="603.5" cy="298.5" r="2.5"/>
	<circle class="st1" cx="613.5" cy="298.5" r="2.5"/>
	<circle class="st1" cx="593.5" cy="349.5" r="2.5"/>
	<circle class="st1" cx="603.5" cy="349.5" r="2.5"/>
	<circle class="st1" cx="613.5" cy="349.5" r="2.5"/>
</g>
<g>
	<circle class="st1" cx="662.5" cy="298.5" r="2.5"/>
	<circle class="st1" cx="672.5" cy="298.5" r="2.5"/>
	<circle class="st1" cx="682.5" cy="298.5" r="2.5"/>
	<circle class="st1" cx="662.5" cy="349.5" r="2.5"/>
	<circle class="st1" cx="672.5" cy="349.5" r="2.5"/>
	<circle class="st1" cx="682.5" cy="349.5" r="2.5"/>
</g>
<g>
	<circle class="st1" cx="38.5" cy="368.5" r="2.5"/>
	<circle class="st1" cx="48.5" cy="368.5" r="2.5"/>
	<circle class="st1" cx="58.5" cy="368.5" r="2.5"/>
	<circle class="st1" cx="38.5" cy="419.5" r="2.5"/>
	<circle class="st1" cx="48.5" cy="419.5" r="2.5"/>
	<circle class="st1" cx="58.5" cy="419.5" r="2.5"/>
</g>
<g>
	<circle class="st1" cx="107.5" cy="368.5" r="2.5"/>
	<circle class="st1" cx="117.5" cy="368.5" r="2.5"/>
	<circle class="st1" cx="127.5" cy="368.5" r="2.5"/>
	<circle class="st1" cx="107.5" cy="419.5" r="2.5"/>
	<circle class="st1" cx="117.5" cy="419.5" r="2.5"/>
	<circle class="st1" cx="127.5" cy="419.5" r="2.5"/>
</g>
<g>
	<circle class="st1" cx="177.5" cy="368.5" r="2.5"/>
	<circle class="st1" cx="187.5" cy="368.5" r="2.5"/>
	<circle class="st1" cx="197.5" cy="368.5" r="2.5"/>
	<circle class="st1" cx="177.5" cy="419.5" r="2.5"/>
	<circle class="st1" cx="187.5" cy="419.5" r="2.5"/>
	<circle class="st1" cx="197.5" cy="419.5" r="2.5"/>
</g>
<g>
	<circle class="st1" cx="246.5" cy="368.5" r="2.5"/>
	<circle class="st1" cx="256.5" cy="368.5" r="2.5"/>
	<circle class="st1" cx="266.5" cy="368.5" r="2.5"/>
	<circle class="st1" cx="246.5" cy="419.5" r="2.5"/>
	<circle class="st1" cx="256.5" cy="419.5" r="2.5"/>
	<circle class="st1" cx="266.5" cy="419.5" r="2.5"/>
</g>
<g>
	<circle class="st1" cx="316.5" cy="368.5" r="2.5"/>
	<circle class="st1" cx="326.5" cy="368.5" r="2.5"/>
	<circle class="st1" cx="336.5" cy="368.5" r="2.5"/>
	<circle class="st1" cx="316.5" cy="419.5" r="2.5"/>
	<circle class="st1" cx="326.5" cy="419.5" r="2.5"/>
	<circle class="st1" cx="336.5" cy="419.5" r="2.5"/>
</g>
<g>
	<circle class="st1" cx="385.5" cy="368.5" r="2.5"/>
	<circle class="st1" cx="395.5" cy="368.5" r="2.5"/>
	<circle class="st1" cx="405.5" cy="368.5" r="2.5"/>
	<circle class="st1" cx="385.5" cy="419.5" r="2.5"/>
	<circle class="st1" cx="395.5" cy="419.5" r="2.5"/>
	<circle class="st1" cx="405.5" cy="419.5" r="2.5"/>
</g>
<g>
	<circle class="st1" cx="454.5" cy="368.5" r="2.5"/>
	<circle class="st1" cx="464.5" cy="368.5" r="2.5"/>
	<circle class="st1" cx="474.5" cy="368.5" r="2.5"/>
	<circle class="st1" cx="454.5" cy="419.5" r="2.5"/>
	<circle class="st1" cx="464.5" cy="419.5" r="2.5"/>
	<circle class="st1" cx="474.5" cy="419.5" r="2.5"/>
</g>
<g>
	<circle class="st1" cx="524.5" cy="368.5" r="2.5"/>
	<circle class="st1" cx="534.5" cy="368.5" r="2.5"/>
	<circle class="st1" cx="544.5" cy="368.5" r="2.5"/>
	<circle class="st1" cx="524.5" cy="419.5" r="2.5"/>
	<circle class="st1" cx="534.5" cy="419.5" r="2.5"/>
	<circle class="st1" cx="544.5" cy="419.5" r="2.5"/>
</g>
<g>
	<circle class="st1" cx="593.5" cy="368.5" r="2.5"/>
	<circle class="st1" cx="603.5" cy="368.5" r="2.5"/>
	<circle class="st1" cx="613.5" cy="368.5" r="2.5"/>
	<circle class="st1" cx="593.5" cy="419.5" r="2.5"/>
	<circle class="st1" cx="603.5" cy="419.5" r="2.5"/>
	<circle class="st1" cx="613.5" cy="419.5" r="2.5"/>
</g>
<g>
	<circle class="st1" cx="662.5" cy="368.5" r="2.5"/>
	<circle class="st1" cx="672.5" cy="368.5" r="2.5"/>
	<circle class="st1" cx="682.5" cy="368.5" r="2.5"/>
	<circle class="st1" cx="662.5" cy="419.5" r="2.5"/>
	<circle class="st1" cx="672.5" cy="419.5" r="2.5"/>
	<circle class="st1" cx="682.5" cy="419.5" r="2.5"/>
</g>
<g>
	<circle class="st1" cx="38.5" cy="437.5" r="2.5"/>
	<circle class="st1" cx="48.5" cy="437.5" r="2.5"/>
	<circle class="st1" cx="58.5" cy="437.5" r="2.5"/>
	<circle class="st1" cx="38.5" cy="488.5" r="2.5"/>
	<circle class="st1" cx="48.5" cy="488.5" r="2.5"/>
	<circle class="st1" cx="58.5" cy="488.5" r="2.5"/>
</g>
<g>
	<circle class="st1" cx="107.5" cy="437.5" r="2.5"/>
	<circle class="st1" cx="117.5" cy="437.5" r="2.5"/>
	<circle class="st1" cx="127.5" cy="437.5" r="2.5"/>
	<circle class="st1" cx="107.5" cy="488.5" r="2.5"/>
	<circle class="st1" cx="117.5" cy="488.5" r="2.5"/>
	<circle class="st1" cx="127.5" cy="488.5" r="2.5"/>
</g>
<g>
	<circle class="st1" cx="177.5" cy="437.5" r="2.5"/>
	<circle class="st1" cx="187.5" cy="437.5" r="2.5"/>
	<circle class="st1" cx="197.5" cy="437.5" r="2.5"/>
	<circle class="st1" cx="177.5" cy="488.5" r="2.5"/>
	<circle class="st1" cx="187.5" cy="488.5" r="2.5"/>
	<circle class="st1" cx="197.5" cy="488.5" r="2.5"/>
</g>
<g>
	<circle class="st1" cx="246.5" cy="437.5" r="2.5"/>
	<circle class="st1" cx="256.5" cy="437.5" r="2.5"/>
	<circle class="st1" cx="266.5" cy="437.5" r="2.5"/>
	<circle class="st1" cx="246.5" cy="488.5" r="2.5"/>
	<circle class="st1" cx="256.5" cy="488.5" r="2.5"/>
	<circle class="st1" cx="266.5" cy="488.5" r="2.5"/>
</g>
<g>
	<circle class="st1" cx="316.5" cy="437.5" r="2.5"/>
	<circle class="st1" cx="326.5" cy="437.5" r="2.5"/>
	<circle class="st1" cx="336.5" cy="437.5" r="2.5"/>
	<circle class="st1" cx="316.5" cy="488.5" r="2.5"/>
	<circle class="st1" cx="326.5" cy="488.5" r="2.5"/>
	<circle class="st1" cx="336.5" cy="488.5" r="2.5"/>
</g>
<g>
	<circle class="st1" cx="385.5" cy="437.5" r="2.5"/>
	<circle class="st1" cx="395.5" cy="437.5" r="2.5"/>
	<circle class="st1" cx="405.5" cy="437.5" r="2.5"/>
	<circle class="st1" cx="385.5" cy="488.5" r="2.5"/>
	<circle class="st1" cx="395.5" cy="488.5" r="2.5"/>
	<circle class="st1" cx="405.5" cy="488.5" r="2.5"/>
</g>
<g>
	<circle class="st1" cx="454.5" cy="437.5" r="2.5"/>
	<circle class="st1" cx="464.5" cy="437.5" r="2.5"/>
	<circle class="st1" cx="474.5" cy="437.5" r="2.5"/>
	<circle class="st1" cx="454.5" cy="488.5" r="2.5"/>
	<circle class="st1" cx="464.5" cy="488.5" r="2.5"/>
	<circle class="st1" cx="474.5" cy="488.5" r="2.5"/>
</g>
<g>
	<circle class="st1" cx="524.5" cy="437.5" r="2.5"/>
	<circle class="st1" cx="534.5" cy="437.5" r="2.5"/>
	<circle class="st1" cx="544.5" cy="437.5" r="2.5"/>
	<circle class="st1" cx="524.5" cy="488.5" r="2.5"/>
	<circle class="st1" cx="534.5" cy="488.5" r="2.5"/>
	<circle class="st1" cx="544.5" cy="488.5" r="2.5"/>
</g>
<g>
	<circle class="st1" cx="593.5" cy="437.5" r="2.5"/>
	<circle class="st1" cx="603.5" cy="437.5" r="2.5"/>
	<circle class="st1" cx="613.5" cy="437.5" r="2.5"/>
	<circle class="st1" cx="593.5" cy="488.5" r="2.5"/>
	<circle class="st1" cx="603.5" cy="488.5" r="2.5"/>
	<circle class="st1" cx="613.5" cy="488.5" r="2.5"/>
</g>
<g>
	<circle class="st1" cx="662.5" cy="437.5" r="2.5"/>
	<circle class="st1" cx="672.5" cy="437.5" r="2.5"/>
	<circle class="st1" cx="682.5" cy="437.5" r="2.5"/>
	<circle class="st1" cx="662.5" cy="488.5" r="2.5"/>
	<circle class="st1" cx="672.5" cy="488.5" r="2.5"/>
	<circle class="st1" cx="682.5" cy="488.5" r="2.5"/>
</g>
<g>
	<circle class="st1" cx="38.5" cy="506.5" r="2.5"/>
	<circle class="st1" cx="48.5" cy="506.5" r="2.5"/>
	<circle class="st1" cx="58.5" cy="506.5" r="2.5"/>
	<circle class="st1" cx="38.5" cy="557.5" r="2.5"/>
	<circle class="st1" cx="48.5" cy="557.5" r="2.5"/>
	<circle class="st1" cx="58.5" cy="557.5" r="2.5"/>
</g>
<g>
	<circle class="st1" cx="107.5" cy="506.5" r="2.5"/>
	<circle class="st1" cx="117.5" cy="506.5" r="2.5"/>
	<circle class="st1" cx="127.5" cy="506.5" r="2.5"/>
	<circle class="st1" cx="107.5" cy="557.5" r="2.5"/>
	<circle class="st1" cx="117.5" cy="557.5" r="2.5"/>
	<circle class="st1" cx="127.5" cy="557.5" r="2.5"/>
</g>
<g>
	<circle class="st1" cx="177.5" cy="506.5" r="2.5"/>
	<circle class="st1" cx="187.5" cy="506.5" r="2.5"/>
	<circle class="st1" cx="197.5" cy="506.5" r="2.5"/>
	<circle class="st1" cx="177.5" cy="557.5" r="2.5"/>
	<circle class="st1" cx="187.5" cy="557.5" r="2.5"/>
	<circle class="st1" cx="197.5" cy="557.5" r="2.5"/>
</g>
<g>
	<circle class="st1" cx="246.5" cy="506.5" r="2.5"/>
	<circle class="st1" cx="256.5" cy="506.5" r="2.5"/>
	<circle class="st1" cx="266.5" cy="506.5" r="2.5"/>
	<circle class="st1" cx="246.5" cy="557.5" r="2.5"/>
	<circle class="st1" cx="256.5" cy="557.5" r="2.5"/>
	<circle class="st1" cx="266.5" cy="557.5" r="2.5"/>
</g>
<g>
	<circle class="st1" cx="316.5" cy="506.5" r="2.5"/>
	<circle class="st1" cx="326.5" cy="506.5" r="2.5"/>
	<circle class="st1" cx="336.5" cy="506.5" r="2.5"/>
	<circle class="st1" cx="316.5" cy="557.5" r="2.5"/>
	<circle class="st1" cx="326.5" cy="557.5" r="2.5"/>
	<circle class="st1" cx="336.5" cy="557.5" r="2.5"/>
</g>
<g>
	<circle class="st1" cx="385.5" cy="506.5" r="2.5"/>
	<circle class="st1" cx="395.5" cy="506.5" r="2.5"/>
	<circle class="st1" cx="405.5" cy="506.5" r="2.5"/>
	<circle class="st1" cx="385.5" cy="557.5" r="2.5"/>
	<circle class="st1" cx="395.5" cy="557.5" r="2.5"/>
	<circle class="st1" cx="405.5" cy="557.5" r="2.5"/>
</g>
<g>
	<circle class="st1" cx="454.5" cy="506.5" r="2.5"/>
	<circle class="st1" cx="464.5" cy="506.5" r="2.5"/>
	<circle class="st1" cx="474.5" cy="506.5" r="2.5"/>
	<circle class="st1" cx="454.5" cy="557.5" r="2.5"/>
	<circle class="st1" cx="464.5" cy="557.5" r="2.5"/>
	<circle class="st1" cx="474.5" cy="557.5" r="2.5"/>
</g>
<g>
	<circle class="st1" cx="524.5" cy="506.5" r="2.5"/>
	<circle class="st1" cx="534.5" cy="506.5" r="2.5"/>
	<circle class="st1" cx="544.5" cy="506.5" r="2.5"/>
	<circle class="st1" cx="524.5" cy="557.5" r="2.5"/>
	<circle class="st1" cx="534.5" cy="557.5" r="2.5"/>
	<circle class="st1" cx="544.5" cy="557.5" r="2.5"/>
</g>
<g>
	<circle class="st1" cx="593.5" cy="506.5" r="2.5"/>
	<circle class="st1" cx="603.5" cy="506.5" r="2.5"/>
	<circle class="st1" cx="613.5" cy="506.5" r="2.5"/>
	<circle class="st1" cx="593.5" cy="557.5" r="2.5"/>
	<circle class="st1" cx="603.5" cy="557.5" r="2.5"/>
	<circle class="st1" cx="613.5" cy="557.5" r="2.5"/>
</g>
<g>
	<circle class="st1" cx="662.5" cy="506.5" r="2.5"/>
	<circle class="st1" cx="672.5" cy="506.5" r="2.5"/>
	<circle class="st1" cx="682.5" cy="506.5" r="2.5"/>
	<circle class="st1" cx="662.5" cy="557.5" r="2.5"/>
	<circle class="st1" cx="672.5" cy="557.5" r="2.5"/>
	<circle class="st1" cx="682.5" cy="557.5" r="2.5"/>
</g>
<g>
	<circle class="st1" cx="38.5" cy="576.5" r="2.5"/>
	<circle class="st1" cx="48.5" cy="576.5" r="2.5"/>
	<circle class="st1" cx="58.5" cy="576.5" r="2.5"/>
	<circle class="st1" cx="38.5" cy="627.5" r="2.5"/>
	<circle class="st1" cx="48.5" cy="627.5" r="2.5"/>
	<circle class="st1" cx="58.5" cy="627.5" r="2.5"/>
</g>
<g>
	<circle class="st1" cx="107.5" cy="576.5" r="2.5"/>
	<circle class="st1" cx="117.5" cy="576.5" r="2.5"/>
	<circle class="st1" cx="127.5" cy="576.5" r="2.5"/>
	<circle class="st1" cx="107.5" cy="627.5" r="2.5"/>
	<circle class="st1" cx="117.5" cy="627.5" r="2.5"/>
	<circle class="st1" cx="127.5" cy="627.5" r="2.5"/>
</g>
<g>
	<circle class="st1" cx="177.5" cy="576.5" r="2.5"/>
	<circle class="st1" cx="187.5" cy="576.5" r="2.5"/>
	<circle class="st1" cx="197.5" cy="576.5" r="2.5"/>
	<circle class="st1" cx="177.5" cy="627.5" r="2.5"/>
	<circle class="st1" cx="187.5" cy="627.5" r="2.5"/>
	<circle class="st1" cx="197.5" cy="627.5" r="2.5"/>
</g>
<g>
	<circle class="st1" cx="246.5" cy="576.5" r="2.5"/>
	<circle class="st1" cx="256.5" cy="576.5" r="2.5"/>
	<circle class="st1" cx="266.5" cy="576.5" r="2.5"/>
	<circle class="st1" cx="246.5" cy="627.5" r="2.5"/>
	<circle class="st1" cx="256.5" cy="627.5" r="2.5"/>
	<circle class="st1" cx="266.5" cy="627.5" r="2.5"/>
</g>
<g>
	<circle class="st1" cx="316.5" cy="576.5" r="2.5"/>
	<circle class="st1" cx="326.5" cy="576.5" r="2.5"/>
	<circle class="st1" cx="336.5" cy="576.5" r="2.5"/>
	<circle class="st1" cx="316.5" cy="627.5" r="2.5"/>
	<circle class="st1" cx="326.5" cy="627.5" r="2.5"/>
	<circle class="st1" cx="336.5" cy="627.5" r="2.5"/>
</g>
<g>
	<circle class="st1" cx="385.5" cy="576.5" r="2.5"/>
	<circle class="st1" cx="395.5" cy="576.5" r="2.5"/>
	<circle class="st1" cx="405.5" cy="576.5" r="2.5"/>
	<circle class="st1" cx="385.5" cy="627.5" r="2.5"/>
	<circle class="st1" cx="395.5" cy="627.5" r="2.5"/>
	<circle class="st1" cx="405.5" cy="627.5" r="2.5"/>
</g>
<g>
	<circle class="st1" cx="454.5" cy="576.5" r="2.5"/>
	<circle class="st1" cx="464.5" cy="576.5" r="2.5"/>
	<circle class="st1" cx="474.5" cy="576.5" r="2.5"/>
	<circle class="st1" cx="454.5" cy="627.5" r="2.5"/>
	<circle class="st1" cx="464.5" cy="627.5" r="2.5"/>
	<circle class="st1" cx="474.5" cy="627.5" r="2.5"/>
</g>
<g>
	<circle class="st1" cx="524.5" cy="576.5" r="2.5"/>
	<circle class="st1" cx="534.5" cy="576.5" r="2.5"/>
	<circle class="st1" cx="544.5" cy="576.5" r="2.5"/>
	<circle class="st1" cx="524.5" cy="627.5" r="2.5"/>
	<circle class="st1" cx="534.5" cy="627.5" r="2.5"/>
	<circle class="st1" cx="544.5" cy="627.5" r="2.5"/>
</g>
<g>
	<circle class="st1" cx="593.5" cy="576.5" r="2.5"/>
	<circle class="st1" cx="603.5" cy="576.5" r="2.5"/>
	<circle class="st1" cx="613.5" cy="576.5" r="2.5"/>
	<circle class="st1" cx="593.5" cy="627.5" r="2.5"/>
	<circle class="st1" cx="603.5" cy="627.5" r="2.5"/>
	<circle class="st1" cx="613.5" cy="627.5" r="2.5"/>
</g>
<g>
	<circle class="st1" cx="662.5" cy="576.5" r="2.5"/>
	<circle class="st1" cx="672.5" cy="576.5" r="2.5"/>
	<circle class="st1" cx="682.5" cy="576.5" r="2.5"/>
	<circle class="st1" cx="662.5" cy="627.5" r="2.5"/>
	<circle class="st1" cx="672.5" cy="627.5" r="2.5"/>
	<circle class="st1" cx="682.5" cy="627.5" r="2.5"/>
</g>
<g>
	<circle class="st1" cx="38.5" cy="645.5" r="2.5"/>
	<circle class="st1" cx="48.5" cy="645.5" r="2.5"/>
	<circle class="st1" cx="58.5" cy="645.5" r="2.5"/>
	<circle class="st1" cx="38.5" cy="696.5" r="2.5"/>
	<circle class="st1" cx="48.5" cy="696.5" r="2.5"/>
	<circle class="st1" cx="58.5" cy="696.5" r="2.5"/>
</g>
<g>
	<circle class="st1" cx="107.5" cy="645.5" r="2.5"/>
	<circle class="st1" cx="117.5" cy="645.5" r="2.5"/>
	<circle class="st1" cx="127.5" cy="645.5" r="2.5"/>
	<circle class="st1" cx="107.5" cy="696.5" r="2.5"/>
	<circle class="st1" cx="117.5" cy="696.5" r="2.5"/>
	<circle class="st1" cx="127.5" cy="696.5" r="2.5"/>
</g>
<g>
	<circle class="st1" cx="177.5" cy="645.5" r="2.5"/>
	<circle class="st1" cx="187.5" cy="645.5" r="2.5"/>
	<circle class="st1" cx="197.5" cy="645.5" r="2.5"/>
	<circle class="st1" cx="177.5" cy="696.5" r="2.5"/>
	<circle class="st1" cx="187.5" cy="696.5" r="2.5"/>
	<circle class="st1" cx="197.5" cy="696.5" r="2.5"/>
</g>
<g>
	<circle class="st1" cx="246.5" cy="645.5" r="2.5"/>
	<circle class="st1" cx="256.5" cy="645.5" r="2.5"/>
	<circle class="st1" cx="266.5" cy="645.5" r="2.5"/>
	<circle class="st1" cx="246.5" cy="696.5" r="2.5"/>
	<circle class="st1" cx="256.5" cy="696.5" r="2.5"/>
	<circle class="st1" cx="266.5" cy="696.5" r="2.5"/>
</g>
<g>
	<circle class="st1" cx="316.5" cy="645.5" r="2.5"/>
	<circle class="st1" cx="326.5" cy="645.5" r="2.5"/>
	<circle class="st1" cx="336.5" cy="645.5" r="2.5"/>
	<circle class="st1" cx="316.5" cy="696.5" r="2.5"/>
	<circle class="st1" cx="326.5" cy="696.5" r="2.5"/>
	<circle class="st1" cx="336.5" cy="696.5" r="2.5"/>
</g>
<g>
	<circle class="st1" cx="385.5" cy="645.5" r="2.5"/>
	<circle class="st1" cx="395.5" cy="645.5" r="2.5"/>
	<circle class="st1" cx="405.5" cy="645.5" r="2.5"/>
	<circle class="st1" cx="385.5" cy="696.5" r="2.5"/>
	<circle class="st1" cx="395.5" cy="696.5" r="2.5"/>
	<circle class="st1" cx="405.5" cy="696.5" r="2.5"/>
</g>
<g>
	<circle class="st1" cx="454.5" cy="645.5" r="2.5"/>
	<circle class="st1" cx="464.5" cy="645.5" r="2.5"/>
	<circle class="st1" cx="474.5" cy="645.5" r="2.5"/>
	<circle class="st1" cx="454.5" cy="696.5" r="2.5"/>
	<circle class="st1" cx="464.5" cy="696.5" r="2.5"/>
	<circle class="st1" cx="474.5" cy="696.5" r="2.5"/>
</g>
<g>
	<circle class="st1" cx="524.5" cy="645.5" r="2.5"/>
	<circle class="st1" cx="534.5" cy="645.5" r="2.5"/>
	<circle class="st1" cx="544.5" cy="645.5" r="2.5"/>
	<circle class="st1" cx="524.5" cy="696.5" r="2.5"/>
	<circle class="st1" cx="534.5" cy="696.5" r="2.5"/>
	<circle class="st1" cx="544.5" cy="696.5" r="2.5"/>
</g>
<g>
	<circle class="st1" cx="593.5" cy="645.5" r="2.5"/>
	<circle class="st1" cx="603.5" cy="645.5" r="2.5"/>
	<circle class="st1" cx="613.5" cy="645.5" r="2.5"/>
	<circle class="st1" cx="593.5" cy="696.5" r="2.5"/>
	<circle class="st1" cx="603.5" cy="696.5" r="2.5"/>
	<circle class="st1" cx="613.5" cy="696.5" r="2.5"/>
</g>
<g>
	<circle class="st1" cx="662.5" cy="646.5" r="2.5"/>
	<circle class="st1" cx="672.5" cy="646.5" r="2.5"/>
	<circle class="st1" cx="682.5" cy="646.5" r="2.5"/>
	<circle class="st1" cx="662.5" cy="697.5" r="2.5"/>
	<circle class="st1" cx="672.5" cy="697.5" r="2.5"/>
	<circle class="st1" cx="682.5" cy="697.5" r="2.5"/>
</g>
</svg>
